<?xml version="1.0" encoding="utf-8"?>
<!-- Generator: Adobe Illustrator 19.2.0, SVG Export Plug-In . SVG Version: 6.00 Build 0)  -->
<svg version="1.1" id="Laag_1" xmlns="http://www.w3.org/2000/svg" xmlns:xlink="http://www.w3.org/1999/xlink" x="0px" y="0px"
	 viewBox="0 0 879.8 337.5" style="enable-background:new 0 0 879.8 337.5;" xml:space="preserve">
<style type="text/css">
	.st0{fill:#FF9999;}
	.st1{fill:#FF8DC6;}
	.st2{fill:#FFB3F1;}
	.st3{fill:#B097FF;}
	.st4{fill:#99B9FF;}
	.st5{fill:#99E9FF;}
	.st6{fill:#99FFFA;}
	.st7{fill:#99FFDD;}
	.st8{fill:#99FFC2;}
	.st9{fill:#99FFA7;}
	.st10{fill:#B2FF99;}
	.st11{fill:#DAFF99;}
	.st12{fill:#F8FF99;}
	.st13{fill:#FFF599;}
	.st14{fill:none;stroke:#000000;stroke-miterlimit:10;}
	.st15{font-family:'Arial-Black';}
	.st16{font-size:119px;}
</style>
<g>
	
		<rect x="684.3" y="142" transform="matrix(1.310330e-10 -1 1 1.310330e-10 683.8976 1021.7665)" class="st0" width="337.1" height="54"/>
	<polygon class="st1" points="847.3,0.7 844.7,337.9 799.8,337.8 802.4,0.7 	"/>
	<polygon class="st2" points="813.4,0.7 810.8,337.8 749,337.8 751.6,0.6 	"/>
	<polygon class="st3" points="761.1,0.7 758.5,337.8 679.8,337.7 682.4,0.6 	"/>
	<polygon class="st4" points="714.1,0.6 711.5,337.7 632.8,337.7 635.4,0.5 	"/>
	<polygon class="st5" points="642.5,0.5 639.9,337.7 570.6,337.6 573.2,0.5 	"/>
	<polygon class="st6" points="585.4,0.5 582.8,337.6 492,337.5 494.6,0.4 	"/>
	<polygon class="st7" points="544.5,0.5 541.9,337.6 384.5,337.4 387.1,0.3 	"/>
	<polygon class="st8" points="418.2,0.4 415.6,337.5 303.4,337.4 306,0.3 	"/>
	<polygon class="st9" points="323.5,0.2 320.9,337.4 224.7,337.3 227.3,0.2 	"/>
	<polygon class="st10" points="252.8,0.2 250.2,337.3 171.5,337.2 174.1,0.2 	"/>
	<polygon class="st11" points="194,0.1 191.4,337.3 113.3,337.2 115.9,0.1 	"/>
	<polygon class="st12" points="120.3,0.1 117.7,337.2 64.2,337.2 66.8,0.1 	"/>
	<polygon class="st13" points="68.6,0.1 66,337.2 0,337.1 2.6,0 	"/>
</g>
<text transform="matrix(1 0 0 1 24.3073 195.1128)"><tspan x="0" y="0" class="st14 st15 st16">REGEN</tspan><tspan x="462.7" y="0" class="st15 st16">BOOG</tspan></text>
</svg>
