<?xml version="1.0" encoding="utf-8"?>
<!-- Generator: Adobe Illustrator 19.2.0, SVG Export Plug-In . SVG Version: 6.00 Build 0)  -->
<svg version="1.1" id="Laag_1" xmlns="http://www.w3.org/2000/svg" xmlns:xlink="http://www.w3.org/1999/xlink" x="0px" y="0px"
	 viewBox="0 0 2048 1536" style="enable-background:new 0 0 2048 1536;" xml:space="preserve">
<style type="text/css">
	.st0{fill:none;}
	.st1{fill:#F7F8F8;}
	.st2{font-family:'Helvetica';}
	.st3{font-size:396.4122px;}
	.st4{fill:#FFFFFF;}
	.st5{fill:#DF8CA6;}
	.st6{fill:#B51F55;}
	.st7{fill:#F4ADCA;}
	.st8{fill:#F3CADE;}
	.st9{fill:#E2D4C8;}
	.st10{font-family:'PTSerif-Caption';}
	.st11{font-size:30.6292px;}
	.st12{fill:#848484;}
	.st13{fill:#FFEBEB;}
	.st14{font-family:'ArialMT';}
	.st15{font-size:28.0096px;}
	.st16{fill:#3D5607;}
	.st17{font-family:'BebasNeue';}
	.st18{font-size:31.9695px;}
	.st19{font-size:34.8758px;}
	.st20{font-family:'BodoniSvtyTwoSCITCTT-Book';}
	.st21{font-size:30.5559px;}
	.st22{font-family:'DFDSBold';}
	.st23{font-size:25.4633px;}
	.st24{font-family:'Phosphate-Inline';}
	.st25{fill:#0227C1;}
	.st26{fill:#66F4FF;}
	.st27{font-size:35.3375px;}
	.st28{opacity:0.44;fill:#66AEAC;enable-background:new    ;}
	.st29{font-family:'Avenir-Light';}
	.st30{font-size:928.0396px;}
	.st31{letter-spacing:195;}
	.st32{opacity:0.44;fill:#231F20;enable-background:new    ;}
	.st33{letter-spacing:213;}
</style>
<g>
	<rect x="115.8" y="85.8" class="st0" width="225.1" height="286.5"/>
	<text transform="matrix(1 0 0 1 90.1118 372.4877)" class="st1 st2 st3">B</text>
</g>
<path class="st0" d="M961.9,576.3"/>
<path class="st4" d="M961.9,710"/>
<rect x="-1.6" y="2.1" class="st5" width="1565.5" height="392.1"/>
<rect x="1011.1" y="2.1" class="st6" width="1036.9" height="1063.6"/>
<rect x="-1.6" y="686.8" class="st7" width="1489.1" height="847.7"/>
<rect x="554" y="384.5" class="st8" width="1010.1" height="735.9"/>
<rect x="667.3" y="1065.7" class="st9" width="1380.7" height="467.3"/>
<rect x="1283.9" y="539.6" class="st0" width="875.2" height="2842.5"/>
<text transform="matrix(0.7793 0 0 1 1283.8916 562.855)" class="st10 st11">naar de Q en als ik bij de Q ben aangekomen weet ik heel even </text>
<text transform="matrix(0.7793 0 0 1 1283.8916 593.4839)" class="st10 st11">weer niet waarom ik hier sta, maar al snel schiet het me te </text>
<text transform="matrix(0.7793 0 0 1 1283.8916 624.1138)" class="st10 st11">binnen en begin ik te </text>
<text transform="matrix(0.7793 0 0 1 1542.1162 624.1138)" class="st12 st10 st11">zoeken. En te zweten. Ik zweet ineens </text>
<text transform="matrix(0.7793 0 0 1 1283.8916 654.7427)" class="st12 st10 st11">als een otter. Man, wat is het warm hier. Mijn blik gaat langs </text>
<text transform="matrix(0.7793 0 0 1 1283.8916 685.3716)" class="st12 st10 st11">de ruggen van de boeken. Eigenaardige letter, de Q. Waarom </text>
<text transform="matrix(0.7793 0 0 1 1283.8916 716.0005)" class="st12 st10 st11">bestaat de Q eigenlijk? Al die Q’s. Quinn, Quintreau. Quaglia. </text>
<text transform="matrix(0.7793 0 0 1 1283.8916 746.6294)" class="st12 st10 st11">Quest. Het duizelt me. Het koudzweet breekt me uit. Die </text>
<text transform="matrix(0.7793 0 0 1 1283.8916 777.2598)" class="st12 st10 st11">namen, ze bestaan helemaal niet. Verzonnen door een kwade </text>
<text transform="matrix(0.7793 0 0 1 1283.8916 807.8867)" class="st12 st10 st11">genius om mij in het qoudzweet te laten baden. Een bezwe</text>
<text transform="matrix(0.7793 0 0 1 1982.1865 807.8867)" class="st12 st10 st11">-</text>
<text transform="matrix(0.7793 0 0 1 1283.8916 838.5176)" class="st12 st10 st11">ring. Ze willen me qapot hebben. Al die andere planeten, ze </text>
<text transform="matrix(0.7793 0 0 1 1283.8916 869.1465)" class="st12 st10 st11">willen me qapot. Wie de fuqk was die Queneau? Welke </text>
<text transform="matrix(0.7793 0 0 1 1283.8916 899.7773)" class="st12 st10 st11">gestoorde idioot gaat 99 keer hetzelfde verhaal vertellen? In </text>
<text transform="matrix(0.7793 0 0 1 1283.8916 930.4062)" class="st12 st10 st11">welk melkwegstelsel draai je dan rondjes? Ik kijk naar de </text>
<text transform="matrix(0.7793 0 0 1 1283.8916 961.0332)" class="st12 st10 st11">boeken van Queneau. Stijloefeningen is niet aanwezig. </text>
<text transform="matrix(0.7793 0 0 1 1283.8916 991.6641)" class="st12 st10 st11">Logisch. Ik zoek het op via de online qatalogus. Stijloefenin</text>
<text transform="matrix(0.7793 0 0 1 1992.8193 991.6641)" class="st12 st10 st11">-</text>
<text transform="matrix(0.7793 0 0 1 1283.8916 1022.293)" class="st12 st10 st11">gen is wel aanwezig. Logisch. Ik vraag het aan een medewer</text>
<text transform="matrix(0.7793 0 0 1 1994.3389 1022.293)" class="st12 st10 st11">-</text>
<text transform="matrix(0.7793 0 0 1 1283.8916 1052.9219)" class="st12 st10 st11">ker die me aankijkt met ogen alsof hij de dood zelve is. Hij is </text>
<text transform="matrix(0.7793 0 0 1 1283.8916 1083.5508)" class="st12 st10 st11">waarschijnlijk de dood zelve. Ik weet het zeker. Ik heb net aan </text>
<text transform="matrix(0.7793 0 0 1 1283.8916 1114.1797)" class="st12 st10 st11">de Dood gevraagd of hij met me mee wil zoeken. De Dood </text>
<text transform="matrix(0.7793 0 0 1 1283.8916 1144.8105)" class="st12 st10 st11">zoekt mee, maar kan het boek ook niet vinden. Logisch. Het </text>
<text transform="matrix(0.7793 0 0 1 1283.8916 1175.4395)" class="st12 st10 st11">boek bestaat niet. De Dood zegt dat ik een mail naar het ma</text>
<text transform="matrix(0.7793 0 0 1 1993.2539 1175.4395)" class="st12 st10 st11">-</text>
<text transform="matrix(0.7793 0 0 1 1283.8916 1206.0684)" class="st12 st10 st11">gazijn moet sturen. Die hebben nog wel een exemplaar. Als de </text>
<text transform="matrix(0.7793 0 0 1 1283.8916 1236.6973)" class="st12 st10 st11">Dood je iets opdraagt, dan weiger je niet. Ik stuur een mail </text>
<text transform="matrix(0.7793 0 0 1 1283.8916 1267.3262)" class="st12 st10 st11">naar het magazijn en krijg vijftien liter koudzweet later een </text>
<text transform="matrix(0.7793 0 0 1 1283.8916 1297.9551)" class="st12 st10 st11">mail terug waarin staat dat Stijloefeningen van Raymond </text>
<text transform="matrix(0.7793 0 0 1 1283.8916 1328.584)" class="st12 st10 st11">Queneau gewoon aanwezig is en op de daartoe bestemde plek </text>
<text transform="matrix(0.7793 0 0 1 1283.8916 1359.2129)" class="st12 st10 st11">staat. Logisch. Ik moet hier weg. Ik moet hier nu weg! Ik ga </text>
<text transform="matrix(0.7793 0 0 1 1283.8916 1389.8418)" class="st12 st10 st11">weg. Op het Bos en Lommerplein bij mijn huisdealer koop ik </text>
<text transform="matrix(0.7793 0 0 1 1283.8916 1420.4727)" class="st12 st10 st11">een gram Babyschoentjes, een milde maroc waarvan ik ter </text>
<text transform="matrix(0.7793 0 0 1 1283.8916 1451.1016)" class="st12 st10 st11">plekke een sticky rol. Reeds bij de eerste haal voel ik hoe mijn </text>
<text transform="matrix(0.7793 0 0 1 1283.8916 1481.7305)" class="st12 st10 st11">kolkende bloed tot bedaren komt. Ik ben weer thuis. M’n zoon </text>
<text transform="matrix(0.7793 0 0 1 1283.8916 1512.3594)" class="st12 st10 st11">slaapt nog steeds.v</text>
<rect x="-1.4" y="372.4" class="st6" width="692.1" height="347.3"/>
<rect x="118.3" y="85.8" class="st0" width="578.5" height="458.8"/>
<text transform="matrix(1 0 0 1 62.3143 75.8539)" class="st13 st14 st15">Zodra ik de bus uitstap steek ik een dikke vette </text>
<text transform="matrix(1 0 0 1 62.3143 109.4662)" class="st13 st14 st15">joint op. De derde van de dag al. Ik neem een </text>
<text transform="matrix(1 0 0 1 62.3143 143.0766)" class="st13 st14 st15">lange haal, inhaleer diep, houd de rook een tijdje </text>
<text transform="matrix(1 0 0 1 62.3143 176.6889)" class="st13 st14 st15">binnen en blaas dan, de lippen gerond, het hoofd </text>
<text transform="matrix(1 0 0 1 62.3143 210.3002)" class="st13 st14 st15">een beetje in de nek, een enorme stoomkegel de </text>
<text transform="matrix(1 0 0 1 62.3143 243.9115)" class="st13 st14 st15">atmosfeer in. Het miezert een beetje en het waait </text>
<text transform="matrix(1 0 0 1 62.3143 277.5229)" class="st13 st14 st15">stevig, weet je. Ik wil niet dat m’n joint nat wordt </text>
<text transform="matrix(1 0 0 1 62.3143 311.1342)" class="st13 st14 st15">dus druk ik de gloeiende kop voorzichtig uit op </text>
<text transform="matrix(1 0 0 1 62.3143 344.7465)" class="st13 st14 st15">mijn aansteker en stop ’m in m’n binnenzak. Ik </text>
<text transform="matrix(1 0 0 1 62.3143 378.3578)" class="st13 st14 st15">duw mijn zoon voort die ligt te maffen in z’n </text>
<text transform="matrix(1 0 0 1 62.3143 411.9682)" class="st13 st14 st15">kinderwagen. Z’n favoriete bezigheid. Maffen. Die </text>
<text transform="matrix(1 0 0 1 62.3143 445.5805)" class="st13 st14 st15">van mij ook trouwens. Ik had nu in m’n nest </text>
<text transform="matrix(1 0 0 1 62.3143 479.1918)" class="st13 st14 st15">kunnen liggen als ik mijzelf niet de bizarre taak </text>
<text transform="matrix(1 0 0 1 62.3143 512.8041)" class="st13 st14 st15">had gesteld om Stijloefeningen van Raymond </text>
<rect x="729.7" y="75.7" class="st0" width="1429.5" height="431.3"/>
<text transform="matrix(0.7967 0 0 1 729.6841 40.979)" class="st16 st17 st18">Queneau te bemachtigen. In dat boek vertelt die Franse steunkous negenennegentig keer hetzelfde verhaal. Je gaat mij niet wijs maken dat die gast niet </text>
<text transform="matrix(0.7967 0 0 1 729.6841 75.854)" class="st16 st17 st18">knetterstoned aan een waterpijp lurkte toen ie dat idee bedacht. Te waus gewoon. Wat een hoop mensen trouwens hier op het stationsplein! Te bizar! En </text>
<text transform="matrix(0.7967 0 0 1 729.6841 110.73)" class="st16 st17 st18">niemand kijkt elkaar aan. Alsof ze allemaal op een andere planeet leven. Misschien leven ze ook allemaal op een andere planeet. Misschien is iedereen </text>
<text transform="matrix(0.7967 0 0 1 729.6841 145.6069)" class="st16 st17 st18">z’n eigen planeet. Dat zou zomaar kunnen. Wauw! Te gek idee. Brainwave! Iedereen is z’n eigen planeet en alle planeten draaien om elkaar heen en </text>
<text transform="matrix(0.7967 0 0 1 729.6841 180.481)" class="st16 st17 st18">trekken elkaar aan en stoten elkaar af. Dat verklaart alles! Waar ben ik nu ineens? Bizar! De mensen zijn weg. Ik loop over een plank en naast me </text>
<text transform="matrix(0.7967 0 0 1 729.6841 215.3579)" class="st16 st17 st18">enorme diepe putten. Geluiden van drilboren en heipalen. Een groep Japanners moet er langs. Ik durf niet van de plank af en vrees het ergste. Ze hebben </text>
<text transform="matrix(0.7967 0 0 1 729.6841 250.2339)" class="st16 st17 st18">allemaal zo’n blauwe, driehoekige doos waarin het Van Gogh Museum z’n posters verpakt. Ze zullen allemaal wel die zonnebloem of dat slaapkamertje </text>
<text transform="matrix(0.7967 0 0 1 729.6841 285.1089)" class="st16 st17 st18">van Van Gogh hebben gekocht. Hoeveel Japanse toeristen zullen die zonnebloem of dat slaapkamertje wel niet op hun wc hebben hangen, of waar </text>
<text transform="matrix(0.7967 0 0 1 729.6841 319.9858)" class="st16 st17 st18">hangen Japanners hun posters op? Fucking bizar. Als Van Gogh dat had geweten, groeide z’n oor spontaan weer aan. En ineens sta ik voor de Openbare </text>
<text transform="matrix(0.7967 0 0 1 729.6841 354.8608)" class="st16 st17 st18">Bibliotheek. Te bizar. Wat een gigagebouw. Ik haal de joint uit m’n binnenzak en neem een stevige haal. Terwijl ik de rook een tijdje vasthoud, word ik </text>
<text transform="matrix(0.7967 0 0 1 729.6841 389.7368)" class="st16 st17 st18">aangetikt door een dame met dik, moddervet, pikzwart haar dat als een nest palingen op haar hoofd kronkelt. Ze praat in het Engels met een Frans </text>
<text transform="matrix(0.7967 0 0 1 729.6841 428.1011)" class="st16 st17 st18">accent. Te bizar gewoon. Of dit het postkantoor is vraagt ze. Wauw! Wat een vraag. Hier stond het postkantoor wel, ooit, lang geleden. Ze zit dus goed, </text>
<text transform="matrix(0.7967 0 0 1 729.6841 469.9517)" class="st16 st17 st18">maar toch zit ze fout, want inmiddels is dit het postkantoor niet meer. Te bizar. Ik blaas de rookkegel via </text>
<text transform="matrix(0.7967 0 0 1 1631.5215 469.9517)" class="st16 st17 st19">m’n </text>
<text transform="matrix(0.7967 0 0 1 1668.1045 469.9517)" class="st16 st20 st19">linkermondhoek weg van haar </text>
<rect x="96.7" y="572.7" class="st0" width="593.8" height="306.8"/>
<text transform="matrix(1 0 0 1 96.6656 592.5278)" class="st16 st20 st21">gezicht en </text>
<text transform="matrix(1 0 0 1 224.7456 592.5278)" class="st16 st22 st15">bied tegelijkertijd m’n joint aan (ik </text>
<text transform="matrix(1 0 0 1 96.6656 626.1391)" class="st16 st22 st15">mag dan wel zo stoned zijn als een blok beton, ik </text>
<text transform="matrix(1 0 0 1 96.6656 659.7514)" class="st16 st22 st15">blijf een beleefde jongen). Ze </text>
<text transform="matrix(1 0 0 1 453.9156 659.7514)" class="st22 st15">slaat de joint </text>
<text transform="matrix(1 0 0 1 96.6656 693.3618)" class="st22 st15">glimlachend af. Wat een glimlach! Te zoet </text>
<text transform="matrix(1 0 0 1 96.6656 726.9741)" class="st22 st15">gewoon. ‘You know,’ zeg ik tegen haar, ‘this ain’t </text>
<text transform="matrix(1 0 0 1 96.6656 760.5854)" class="st22 st15">the library anymore, you know. But it was once. </text>
<text transform="matrix(1 0 0 1 96.6656 794.1957)" class="st22 st15">It’s freaking me out, you know.’ Ik wil een heel </text>
<text transform="matrix(1 0 0 1 96.6656 827.808)" class="st22 st15">verhaal tegen haar houden over de aard van de </text>
<text transform="matrix(1 0 0 1 96.6656 861.4189)" class="st22 st15">dingen en wat iets is als het niet meer is wat het </text>
<rect x="721.8" y="539.6" class="st0" width="480.5" height="493.5"/>
<text transform="matrix(1 0 0 1 721.6924 559.3403)" class="st22 st15">ooit was… </text>
<text transform="matrix(1 0 0 1 850.5361 559.3403)" class="st22 st23">maar er lijkt iets </text>
<text transform="matrix(1 0 0 1 1038.4551 559.3403)" class="st24 st23">tussen </text>
<text transform="matrix(1 0 0 1 721.6924 589.895)" class="st24 st23">gekomen, want ze kijkt naar achteren. </text>
<text transform="matrix(1 0 0 1 721.6924 620.4516)" class="st24 st23">Ik kijk met haar mee, neem een jointje </text>
<text transform="matrix(1 0 0 1 721.6924 651.0082)" class="st24 st23">van m’n trek en zie een </text>
<text transform="matrix(1 0 0 1 998.4785 651.0082)" class="st25 st24 st23">oude Renault 21, </text>
<text transform="matrix(1 0 0 1 721.6924 681.5629)" class="st25 st24 st23">zo eentje waarin MC Solaar altijd reed </text>
<text transform="matrix(1 0 0 1 721.6924 712.1196)" class="st25 st24 st23">in z’n clippies die ze midden in de nacht </text>
<text transform="matrix(1 0 0 1 721.6924 742.6752)" class="st25 st24 st23">op MTV wel eens uitzonden, toen MTV </text>
<text transform="matrix(1 0 0 1 721.6924 773.2309)" class="st25 st24 st23">nog muziekclippies uitzond. Dan zat ik </text>
<text transform="matrix(1 0 0 1 721.6924 803.7875)" class="st25 st24 st23">hele nachten lang te smoken en te </text>
<text transform="matrix(1 0 0 1 721.6924 840.4536)" class="st25 st24 st21">wachten tot dat ene ultieme </text>
<text transform="matrix(1 0 0 1 721.6924 877.1201)" class="st25 st24 st21">clippie dat maar niet kwam. En </text>
<text transform="matrix(1 0 0 1 721.6924 913.788)" class="st25 st24 st21">aan het eind van elk clippie zei je </text>
<text transform="matrix(1 0 0 1 721.6924 950.456)" class="st25 st14 st21">tegen jezelf: nog eentje en dan keek </text>
<text transform="matrix(1 0 0 1 721.6924 987.122)" class="st25 st14 st21">je nog een clippie en nog een en nog </text>
<text transform="matrix(1 0 0 1 721.6924 1023.79)" class="st25 st14 st21">een totdat de vogeltjes begonnen te </text>
<rect x="62.3" y="879.8" class="st0" width="628.2" height="534.7"/>
<text transform="matrix(1 0 0 1 62.3143 1008.074)" class="st25 st14 st21">fluiten en dan rookte je nog een joint en dan </text>
<text transform="matrix(1 0 0 1 62.3143 1044.7421)" class="st25 st14 st21">zweefde je zo stoned als een garnalenkro</text>
<text transform="matrix(1 0 0 1 585.5839 1044.7421)" class="st26 st14 st21">ketje </text>
<text transform="matrix(1 0 0 1 62.3143 1081.4081)" class="st26 st14 st21">naar je bedje toe om in een droomloze slaap weg </text>
<text transform="matrix(1 0 0 1 62.3143 1109.4178)" class="st26 st14 st21">te zinken. De vrouw rent inmiddels de Renault 21 </text>
<text transform="matrix(1 0 0 1 62.3143 1137.4276)" class="st26 st14 st21">achterna, die trouwens achteruit aan het wegrij</text>
<text transform="matrix(1 0 0 1 663.2465 1137.4276)" class="st26 st14 st21">-</text>
<text transform="matrix(1 0 0 1 62.3143 1165.4374)" class="st26 st14 st21">den is. Te bizar. Ik moet denken aan de achteruit</text>
<text transform="matrix(1 0 0 1 674.1957 1165.4374)" class="st26 st14 st21">-</text>
<text transform="matrix(1 0 0 1 62.3143 1193.4471)" class="st26 st14 st21">rijraces van vroeger. Met die Daffies die even </text>
<text transform="matrix(1 0 0 1 62.3143 1221.4569)" class="st26 st14 st21">hard achteruit als vooruit gingen. En dan met </text>
<text transform="matrix(1 0 0 1 62.3143 1249.4667)" class="st26 st14 st21">geinig commentaar van André van Duin. Jammer </text>
<text transform="matrix(1 0 0 1 62.3143 1277.4745)" class="st26 st14 st21">dat ik toen te jong was om de hele dag stoned te </text>
<text transform="matrix(1 0 0 1 62.3143 1305.4843)" class="st26 st14 st21">zijn, anders was dat uitstekend voer voor giga</text>
<text transform="matrix(1 0 0 1 642.8763 1305.4843)" class="st26 st14 st21">-</text>
<text transform="matrix(1 0 0 1 62.3143 1333.494)" class="st26 st14 st21">lachkicks geweest, daar kun je vergif op inne</text>
<text transform="matrix(1 0 0 1 627.0883 1333.494)" class="st26 st14 st21">-</text>
<text transform="matrix(1 0 0 1 62.3143 1361.5038)" class="st26 st14 st21">men. Te bizar. Ik weet niet hoe, maar ik sta op de </text>
<text transform="matrix(1 0 0 1 62.3143 1389.5135)" class="st26 st14 st21">tweede verdieping van de bibliotheek. Waarom </text>
<text transform="matrix(1 0 0 1 62.3143 1417.5233)" class="st26 st14 st21">was ik hier ook alweer? Voor een boek waar</text>
<text transform="matrix(1 0 0 1 613.5936 1417.5233)" class="st26 st14 st21">-</text>
<text transform="matrix(1 0 0 1 62.3143 1445.5331)" class="st26 st14 st21">schijnlijk. Haha. Maar welk boek? Godverdegod</text>
<text transform="matrix(1 0 0 1 660.9545 1445.5331)" class="st26 st14 st21">-</text>
<text transform="matrix(1 0 0 1 62.3143 1473.5428)" class="st26 st14 st21">ver. Ik ook met m’n stonede harses. Ik draai een </text>
<text transform="matrix(1 0 0 1 62.3143 1501.5526)" class="st26 st14 st21">rondje rond m’n as. M’n zoon ligt nog steeds in </text>
<rect x="725.9" y="1025.7" class="st0" width="545.7" height="358.5"/>
<text transform="matrix(0.8241 0 0 1 697.333 1093.0459)" class="st26 st14 st27">z’n wagen te maffen, de mafkees. Haha. </text>
<text transform="matrix(0.8241 0 0 1 697.333 1128.3809)" class="st26 st14 st27">Maffende mafkees. Zou dat daar vandaan </text>
<text transform="matrix(0.8241 0 0 1 697.333 1163.7188)" class="st26 st14 st27">komen? Bizar. Maf. Kees. Mafkees. Ik krijg </text>
<text transform="matrix(0.8241 0 0 1 697.333 1199.0566)" class="st26 st14 st27">spontaan een lachkick. Ik lag </text>
<text transform="matrix(0.8241 0 0 1 1048.8896 1199.0566)" class="st14 st27">me ziek. In </text>
<text transform="matrix(0.8241 0 0 1 1182.8418 1199.0566)" class="st10 st27">me </text>
<text transform="matrix(0.8241 0 0 1 697.333 1234.3945)" class="st10 st27">eentje lig ik hier op de grond, krom </text>
<text transform="matrix(0.8241 0 0 1 697.333 1269.7324)" class="st10 st27">van het lachen. Te maf gewoon. Maf is </text>
<text transform="matrix(0.8241 0 0 1 697.333 1305.0703)" class="st10 st27">natuurlijk ook gek. Te gek. Te maf. </text>
<text transform="matrix(0.8241 0 0 1 697.333 1340.4072)" class="st10 st27">Queneau was ook een mafkees. Of een </text>
<text transform="matrix(0.8241 0 0 1 697.333 1375.7451)" class="st10 st27">mafquees. Of een mafqeuneau. Te </text>
<text transform="matrix(0.8241 0 0 1 697.333 1411.083)" class="st10 st27">maf. Te Kees. Te Queneau. Ik was op </text>
<text transform="matrix(0.8241 0 0 1 697.333 1446.4209)" class="st10 st27">zoek naar Stijloefeningen van die </text>
<text transform="matrix(0.8241 0 0 1 697.333 1481.7559)" class="st10 st27">mafkees van een Raymond Queneau. </text>
<text transform="matrix(0.8241 0 0 1 697.333 1517.0938)" class="st10 st27">De cavalerie geeft nooit op! Ik loop </text>
<text transform="matrix(4.489659e-11 -1 1 4.489659e-11 859.085 1339.4247)" class="st28 st29 st30 st31">S</text>
<text transform="matrix(4.489659e-11 -1 1 4.489659e-11 859.084 646.4809)" class="st28 st29 st30 st31">T</text>
<text transform="matrix(4.489659e-11 -1 1 4.489659e-11 1440.1104 1405.036)" class="st32 st29 st30 st31">O</text>
<text transform="matrix(4.489659e-11 -1 1 4.489659e-11 1411.4141 697.0434)" class="st32 st29 st30 st33">N</text>
<text transform="matrix(4.489659e-11 -1 1 4.489659e-11 2029.8135 1332.7665)" class="st32 st29 st30 st31">E</text>
<text transform="matrix(4.489659e-11 -1 1 4.489659e-11 1680.0156 752.3403)" class="st32 st29 st30 st31">D</text>
</svg>
