<?xml version="1.0" encoding="utf-8"?>
<!-- Generator: Adobe Illustrator 19.2.0, SVG Export Plug-In . SVG Version: 6.00 Build 0)  -->
<svg version="1.1" id="Laag_1" xmlns="http://www.w3.org/2000/svg" xmlns:xlink="http://www.w3.org/1999/xlink" x="0px" y="0px"
	 viewBox="0 0 2048 1833.3" style="enable-background:new 0 0 2048 1833.3;" xml:space="preserve">
<style type="text/css">
	.st0{opacity:0.21;}
	.st1{fill:none;}
	.st2{fill:#FFFFFF;}
	.st3{font-family:'Helvetica';}
	.st4{font-size:74.0942px;}
	.st5{fill:#FFFFFF;stroke:#38372A;stroke-miterlimit:10;}
	.st6{fill:#F7F8F8;}
	.st7{font-size:338.1828px;}
	.st8{fill:#DF8CA6;}
	.st9{fill:#B51F55;}
	.st10{fill:#F4ADCA;}
	.st11{fill:#F3CADE;}
	.st12{fill:#E2D4C8;}
	.st13{font-family:'PTSans-Narrow';}
	.st14{font-size:38.1523px;}
	.st15{fill:#848484;}
	.st16{font-family:'AmericanTypewriter';}
	.st17{fill:#3D5607;}
	.st18{font-family:'ArialRoundedMTBold';}
	.st19{font-family:'BebasNeue';}
	.st20{fill:#D47C00;}
	.st21{font-family:'Phosphate-Inline';}
	.st22{font-size:35.7678px;}
	.st23{fill:#1E00E9;}
	.st24{font-family:'Krungthep';}
	.st25{font-family:'MyriadPro-Regular';}
	.st26{fill:#66F4FF;}
	.st27{font-family:'DFDSBold';}
	.st28{fill:#55D6FF;}
	.st29{fill:#55F7FF;}
	.st30{font-family:'Copperplate';}
	.st31{font-family:'PTSerif-Caption';}
	.st32{font-size:35.366px;}
	.st33{opacity:0.44;fill:#66AEAC;}
	.st34{font-family:'Avenir-Light';}
	.st35{font-size:1127.7272px;}
	.st36{letter-spacing:238.8;}
	.st37{font-size:727.1329px;}
	.st38{letter-spacing:153.6;}
	.st39{opacity:0.44;fill:#231F20;}
	.st40{font-size:475.6899px;}
	.st41{letter-spacing:100.3;}
	.st42{font-size:781.2918px;}
	.st43{letter-spacing:181.6;}
	.st44{font-size:1062.114px;}
	.st45{letter-spacing:225;}
	.st46{letter-spacing:164.8;}
</style>
<g>
	<g class="st0">
		<rect x="1011.6" y="1386.1" class="st1" width="14" height="41.3"/>
		<text transform="matrix(0.9868 0 0 1 998.6904 1427.335)" class="st2 st3 st4">n</text>
	</g>
	<g class="st0">
		<rect x="1064.6" y="1200.5" class="st1" width="14" height="41.3"/>
		<text transform="matrix(0.9868 0 0 1 1051.6465 1241.7881)" class="st2 st3 st4">d</text>
	</g>
	<rect x="11" y="71.5" class="st5" width="1976" height="1802.6"/>
	<g>
		<rect x="309.3" y="22.3" class="st1" width="189.5" height="244.4"/>
		<text transform="matrix(0.9868 0 0 1 287.6978 266.8105)" class="st6 st3 st7">B</text>
	</g>
	<path class="st1" d="M1021.7,440.7"/>
	<path class="st2" d="M1021.7,554.7"/>
	<rect x="0" y="-17.3" class="st8" width="1329" height="423.2"/>
	<rect x="1063.1" y="-17.3" class="st9" width="986.7" height="674.9"/>
	<rect x="0" y="535" class="st10" width="1464.1" height="1346.2"/>
	<rect x="678.2" y="277" class="st11" width="1371.6" height="627.8"/>
	<rect x="355.5" y="858.2" class="st12" width="1694.3" height="1024.2"/>
	
		<rect x="752.6" y="1279.4" transform="matrix(-1 -3.649135e-10 3.649135e-10 -1 2807.4612 4983.6382)" class="st1" width="1302.3" height="2424.9"/>
	<text transform="matrix(0.9868 0 0 1 752.5752 1306.0596)"><tspan x="0" y="0" class="st13 st14">begin ik te </tspan><tspan x="147.4" y="0" class="st15 st13 st14">zoeken. En te zweten. Ik zweet ineens als een otter. Man, wat is het warm hier. Mijn blik </tspan><tspan x="0" y="31" class="st15 st13 st14">gaat langs de ruggen van de boeken. Eigenaardige letter, de Q. Waarom bestaat de Q eigenlijk? Al </tspan><tspan x="0" y="62" class="st15 st13 st14">die Q’s. Quinn, Quintreau. Quaglia. Quest. Het duizelt me. Het koudzweet breekt me uit. Die namen, </tspan><tspan x="0" y="93" class="st15 st13 st14">ze bestaan helemaal niet. Verzonnen door een kwade genius om mij in het qoudzweet te laten </tspan><tspan x="0" y="124" class="st15 st13 st14">baden. Een bezwering. Ze willen me qapot hebben. Al die andere planeten, ze willen me qapot. Wie </tspan><tspan x="0" y="155" class="st15 st13 st14">de fuqk was die Queneau? Welke gestoorde idioot gaat 99 keer hetzelfde verhaal vertellen? In welk </tspan><tspan x="0" y="186" class="st15 st13 st14">melkwegstelsel draai je dan rondjes? Ik kijk naar de boeken van Queneau. Stijloefeningen is niet </tspan><tspan x="0" y="217" class="st15 st13 st14">aanwezig. Logisch. Ik zoek het op via de online qatalogus. Stijloefeningen is wel aanwezig. Logisch. </tspan><tspan x="0" y="248" class="st15 st13 st14">Ik vraag het aan een medewerker die me aankijkt met ogen alsof hij de dood zelve is. Hij is waar</tspan><tspan x="1264.8" y="248" class="st15 st13 st14">-</tspan><tspan x="0" y="279" class="st15 st13 st14">schijnlijk de dood zelve. Ik weet het zeker. Ik heb net aan de Dood gevraagd of hij met me mee wil </tspan><tspan x="0" y="310" class="st15 st13 st14">zoeken. De Dood zoekt mee, maar kan het boek ook niet vinden. Logisch. Het boek bestaat niet. De </tspan><tspan x="0" y="341" class="st15 st13 st14">Dood zegt dat ik een mail naar het magazijn moet sturen. Die hebben nog wel een exemplaar. Als </tspan><tspan x="0" y="372" class="st15 st13 st14">de Dood je iets opdraagt, dan weiger je niet. Ik stuur een mail naar het magazijn en krijg vijftien </tspan><tspan x="0" y="403" class="st15 st13 st14">liter koudzweet later een mail terug waarin staat dat Stijloefeningen van Raymond Queneau </tspan><tspan x="0" y="434" class="st15 st13 st14">gewoon aanwezig is en op de daartoe bestemde plek staat. Logisch. Ik moet hier weg. Ik moet hier </tspan><tspan x="0" y="465" class="st15 st13 st14">nu weg! Ik ga weg. Op het Bos en Lommerplein bij mijn huisdealer koop ik een gram Babyschoen</tspan><tspan x="1273.3" y="465" class="st15 st13 st14">-</tspan><tspan x="0" y="496" class="st15 st13 st14">tjes, een milde maroc waarvan ik ter plekke een sticky rol. Reeds bij de eerste haal voel ik hoe mijn </tspan><tspan x="0" y="527" class="st15 st13 st14">kolkende bloed tot bedaren komt. Ik ben weer thuis. M’n zoon slaapt nog steeds.v</tspan></text>
	
		<rect x="0" y="352.4" transform="matrix(-1 -3.085189e-11 3.085189e-11 -1 797.8024 1001.1181)" class="st9" width="797.7" height="296.3"/>
	<rect x="44.2" y="22.3" class="st1" width="782" height="672"/>
	<text transform="matrix(0.9868 0 0 1 44.1553 48.2178)"><tspan x="0" y="0" class="st2 st16 st14">Zodra ik de bus uitstap steek ik een dikke </tspan><tspan x="0" y="31" class="st2 st16 st14">vette joint op. De derde van de dag al. Ik </tspan><tspan x="0" y="62" class="st2 st16 st14">neem een lange haal, inhaleer diep, houd </tspan><tspan x="0" y="93" class="st2 st16 st14">de rook een tijdje binnen en blaas dan, de </tspan><tspan x="0" y="124" class="st2 st16 st14">lippen gerond, het hoofd een beetje in de </tspan><tspan x="0" y="155" class="st2 st16 st14">nek, een enorme stoomkegel de atmosfeer </tspan><tspan x="0" y="186" class="st2 st16 st14">in. Het miezert een beetje en het waait </tspan><tspan x="0" y="217" class="st2 st16 st14">stevig, weet je. Ik wil niet dat m’n joint nat </tspan><tspan x="0" y="248" class="st2 st16 st14">wordt dus druk ik de gloeiende kop voor</tspan><tspan x="731.2" y="248" class="st2 st16 st14">-</tspan><tspan x="0" y="279" class="st2 st16 st14">zichtig uit op mijn aansteker en stop ’m in </tspan><tspan x="0" y="310" class="st2 st16 st14">m’n binnenzak. Ik duw mijn zoon voort die </tspan><tspan x="0" y="341" class="st2 st16 st14">ligt te maffen in z’n kinderwagen. Z’n favo</tspan><tspan x="765.4" y="341" class="st2 st16 st14">-</tspan><tspan x="0" y="372" class="st2 st16 st14">riete bezigheid. Maffen. Die van mij ook </tspan><tspan x="0" y="403" class="st2 st16 st14">trouwens. Ik had nu in m’n nest kunnen </tspan><tspan x="0" y="434" class="st2 st16 st14">liggen als ik mijzelf niet de bizarre taak </tspan><tspan x="0" y="465" class="st2 st16 st14">had gesteld om Stijloefeningen van Ray</tspan><tspan x="717.1" y="465" class="st2 st16 st14">-</tspan><tspan x="0" y="496" class="st2 st16 st14">mond Queneau te bemachtigen. In dat boek </tspan><tspan x="0" y="527" class="st2 st16 st14">vertelt die Franse steunkous negenenne</tspan><tspan x="731.9" y="527" class="st2 st16 st14">-</tspan><tspan x="0" y="558" class="st2 st16 st14">gentig keer hetzelfde verhaal. Je gaat mij </tspan><tspan x="0" y="589" class="st2 st16 st14">niet wijs maken dat die gast niet knetter</tspan><tspan x="735.5" y="589" class="st2 st16 st14">-</tspan><tspan x="0" y="620" class="st2 st16 st14">stoned aan een waterpijp lurkte toen ie dat </tspan></text>
	<rect x="826.1" y="13.6" class="st1" width="1203.5" height="644.1"/>
	<text transform="matrix(0.9868 0 0 1 826.1362 41.3384)"><tspan x="0" y="0" class="st17 st18 st14">idee bedacht. Te waus gewoon. Wat een hoop mensen trouwens </tspan><tspan x="0" y="31" class="st17 st18 st14">hier op het stationsplein! Te bizar! En niemand kijkt elkaar aan. </tspan><tspan x="0" y="62" class="st17 st18 st14">Alsof ze allemaal op een andere planeet leven. Misschien leven ze </tspan><tspan x="0" y="93" class="st17 st18 st14">ook allemaal op een andere planeet. Misschien is iedereen z’n </tspan><tspan x="0" y="124" class="st17 st18 st14">eigen planeet. Dat zou zomaar kunnen. Wauw! Te gek idee. Brain</tspan><tspan x="1198.2" y="124" class="st17 st18 st14">-</tspan><tspan x="0" y="155" class="st17 st18 st14">wave! Iedereen is z’n eigen planeet en alle planeten draaien om </tspan><tspan x="0" y="186" class="st17 st18 st14">elkaar heen en trekken elkaar aan en stoten elkaar af. Dat ver</tspan><tspan x="1137.6" y="186" class="st17 st18 st14">-</tspan><tspan x="0" y="217" class="st17 st18 st14">klaart alles! Waar ben ik nu ineens? Bizar! De mensen zijn weg. Ik </tspan><tspan x="0" y="248" class="st17 st18 st14">loop over een plank en naast me enorme diepe putten. Geluiden </tspan><tspan x="0" y="279" class="st17 st18 st14">van drilboren en heipalen. Een groep Japanners moet er langs. Ik </tspan><tspan x="0" y="310" class="st17 st18 st14">durf niet van de plank af en vrees het ergste. Ze hebben allemaal </tspan><tspan x="0" y="341" class="st17 st18 st14">zo’n blauwe, driehoekige doos waarin het Van Gogh Museum z’n </tspan><tspan x="0" y="372" class="st17 st18 st14">posters verpakt. Ze zullen allemaal wel die zonnebloem of dat </tspan><tspan x="0" y="403" class="st17 st18 st14">slaapkamertje van Van Gogh hebben gekocht. Hoeveel Japanse </tspan><tspan x="0" y="434" class="st17 st18 st14">toeristen zullen die zonnebloem of dat slaapkamertje wel niet op </tspan><tspan x="0" y="465" class="st17 st18 st14">hun wc hebben hangen, of waar hangen Japanners hun posters </tspan><tspan x="0" y="496" class="st17 st18 st14">op? Fucking bizar. Als Van Gogh dat had geweten, groeide z’n oor </tspan><tspan x="0" y="527" class="st17 st18 st14">spontaan weer aan. En ineens sta ik voor de Openbare Biblio</tspan><tspan x="1122.3" y="527" class="st17 st18 st14">-</tspan><tspan x="0" y="558" class="st17 st18 st14">theek. Te bizar. Wat een gigagebouw. Ik haal de joint uit m’n bin</tspan><tspan x="1174.7" y="558" class="st17 st18 st14">-</tspan><tspan x="0" y="589" class="st17 st18 st14">nenzak en neem een stevige haal. Terwijl ik de rook een tijdje </tspan><tspan x="1137" y="589" class="st17 st19 st14">vast</tspan><tspan x="1195.7" y="589" class="st17 st19 st14">-</tspan></text>
	<rect x="48" y="697.5" class="st1" width="716.6" height="573.8"/>
	<text transform="matrix(0.9868 0 0 1 48.02 724.1714)"><tspan x="0" y="0" class="st20 st19 st14">houd, word ik aangetikt door een dame met dik, mod</tspan><tspan x="656" y="0" class="st20 st19 st14">-</tspan><tspan x="0" y="31" class="st20 st19 st14">dervet, pikzwart haar dat als een nest palingen op haar </tspan><tspan x="0" y="62" class="st20 st19 st14">hoofd kronkelt. Ze praat in het Engels met een Frans </tspan><tspan x="0" y="93" class="st20 st19 st14">accent. Te bizar gewoon. Of dit het postkantoor is </tspan><tspan x="0" y="124" class="st20 st19 st14">vraagt ze. Wauw! Wat een vraag. Hier stond het postkan</tspan><tspan x="714.8" y="124" class="st20 st19 st14">-</tspan><tspan x="0" y="155" class="st20 st19 st14">toor wel, ooit, lang geleden. Ze zit dus goed, maar toch </tspan><tspan x="0" y="186" class="st20 st19 st14">zit ze fout, want inmiddels is dit het postkantoor niet </tspan><tspan x="0" y="217" class="st20 st19 st14">meer. Te bizar. Ik blaas de rookkegel via m’n linker</tspan><tspan x="650" y="217" class="st20 st19 st14">-</tspan><tspan x="0" y="248" class="st20 st19 st14">mondhoek weg van haar gezicht en bied tegelijkertijd </tspan><tspan x="0" y="279" class="st20 st19 st14">m’n joint aan (ik mag dan wel zo stoned zijn als een blok </tspan><tspan x="0" y="310" class="st20 st19 st14">beton, ik blijf een beleefde jongen). Ze slaat de joint </tspan><tspan x="0" y="341" class="st20 st19 st14">glimlachend af. Wat een glimlach! Te zoet gewoon. ‘You </tspan><tspan x="0" y="372" class="st20 st19 st14">know,’ zeg ik tegen haar, ‘this ain’t the library anymore, </tspan><tspan x="0" y="403" class="st20 st19 st14">you know. But it was once. It’s freaking me out, you </tspan><tspan x="0" y="434" class="st20 st19 st14">know.’ Ik wil een heel verhaal tegen haar houden over </tspan><tspan x="0" y="465" class="st20 st19 st14">de aard van de dingen en wat iets is als het niet meer is </tspan><tspan x="0" y="496" class="st20 st19 st14">wat het ooit was… maar er lijkt iets tussen </tspan><tspan x="560.8" y="496" class="st20 st21 st22">geko</tspan><tspan x="651.3" y="496" class="st20 st21 st22">-</tspan><tspan x="0" y="527" class="st20 st21 st22">men, want ze kijkt naar achteren. Ik kijk </tspan></text>
	<rect x="1364" y="694.3" class="st1" width="686.6" height="547.5"/>
	<text transform="matrix(0.9868 0 0 1 1363.9795 718.1289)"><tspan x="0" y="0" class="st20 st21 st22">met </tspan><tspan x="67.8" y="0" class="st23 st21 st22">haar mee, neem een jointje van m’n </tspan><tspan x="0" y="31" class="st23 st21 st22">trek en zie een oude Renault 21, zo eentje </tspan><tspan x="0" y="62" class="st23 st21 st22">waarin MC Solaar altijd reed in z’n </tspan><tspan x="0" y="93" class="st23 st21 st22">clippies die ze midden in de nacht op MTV </tspan><tspan x="0" y="124" class="st23 st21 st22">wel eens uitzonden, toen MTV nog mu</tspan><tspan x="640.6" y="124" class="st23 st21 st22">-</tspan><tspan x="0" y="155" class="st23 st21 st22">ziekclippies uitzond. Dan zat ik hele </tspan><tspan x="0" y="186" class="st23 st21 st22">nachten lang te smoken en te wachten </tspan><tspan x="0" y="217" class="st23 st21 st22">tot dat ene ultieme clippie dat maar niet </tspan><tspan x="0" y="248" class="st23 st21 st22">kwam. En aan het eind van elk clippie zei </tspan><tspan x="0" y="279" class="st23 st21 st22">je tegen jezelf: nog eentje en dan keek je </tspan><tspan x="0" y="310" class="st23 st21 st22">nog een clippie en nog een en nog een </tspan><tspan x="0" y="341" class="st23 st21 st14">totdat de vogeltjes begon</tspan><tspan x="493.5" y="341" class="st23 st24 st14">nen te </tspan><tspan x="0" y="372" class="st23 st24 st14">fluiten en dan rookte je nog een </tspan><tspan x="0" y="403" class="st23 st24 st14">joint en dan zweefde </tspan><tspan x="450.5" y="403" class="st23 st25 st14">je zo stoned als </tspan><tspan x="0" y="434" class="st23 st25 st14">een garnalenkroketje naar je bedje toe om </tspan><tspan x="0" y="465" class="st23 st25 st14">in een droomloze slaap weg </tspan><tspan x="454.2" y="465" class="st26 st27 st14">te zinken. De </tspan><tspan x="0" y="496" class="st26 st27 st14">vrouw rent inmiddels de Renault 21 ach</tspan><tspan x="655.4" y="496" class="st26 st27 st14">-</tspan></text>
	<rect x="44.9" y="1271.2" class="st1" width="720.2" height="602.8"/>
	<text transform="matrix(0.9868 0 0 1 44.9033 1298.1006)"><tspan x="0" y="0" class="st26 st27 st14">terna, die trouwens achteruit aan het wegrij</tspan><tspan x="717.5" y="0" class="st26 st27 st14">-</tspan><tspan x="0" y="31" class="st26 st27 st14">den is. Te bizar. Ik moet denken aan de ach</tspan><tspan x="700.8" y="31" class="st26 st27 st14">-</tspan><tspan x="0" y="62" class="st26 st27 st14">teruitrijraces van vroeger. Met die Daffies </tspan><tspan x="0" y="93" class="st26 st27 st14">die even hard achteruit als vooruit gingen. </tspan><tspan x="0" y="124" class="st26 st27 st14">En dan met geinig commentaar van André </tspan><tspan x="0" y="155" class="st26 st27 st14">van Duin. Jammer dat ik toen te jong was </tspan><tspan x="0" y="186" class="st26 st27 st14">om de hele dag stoned te zijn, anders was </tspan><tspan x="0" y="217" class="st26 st27 st14">dat uitstekend voer voor gigalachkicks ge</tspan><tspan x="683.2" y="217" class="st26 st27 st14">-</tspan><tspan x="0" y="248" class="st26 st27 st14">weest, daar kun je vergif op innemen. Te </tspan><tspan x="0" y="279" class="st26 st27 st14">bizar. Ik weet niet hoe, maar ik sta op de </tspan><tspan x="0" y="310" class="st26 st27 st14">tweede verdieping van de bibliotheek. </tspan><tspan x="0" y="341" class="st26 st27 st14">Waarom was ik hier ook alweer? Voor een </tspan><tspan x="0" y="372" class="st26 st27 st14">boek waarschijnlijk. Haha. Maar welk boek? </tspan><tspan x="0" y="403" class="st26 st27 st14">Godverdegodver. Ik ook met m’n stonede </tspan><tspan x="0" y="434" class="st26 st27 st14">harses. Ik draai een rondje rond m’n as. M’n </tspan><tspan x="0" y="465" class="st26 st27 st14">zoon ligt nog steeds in z’n wagen te maffen, </tspan><tspan x="0" y="496" class="st26 st27 st14">de mafkees. Haha. Maffende maf</tspan><tspan x="533.5" y="496" class="st28 st27 st14">kees. Zou </tspan><tspan x="0" y="527" class="st28 st27 st14">dat daar vandaan komen? Bizar. </tspan><tspan x="534.7" y="527" class="st29 st27 st14">Maf. </tspan><tspan x="615.1" y="527" class="st29 st30 st14">Kees. </tspan><tspan x="0" y="558" class="st29 st30 st14">Mafkees. Ik krijg spontaan een lach</tspan><tspan x="695.4" y="558" class="st29 st30 st14">-</tspan></text>
	<rect x="796" y="675.5" class="st1" width="533.1" height="542.5"/>
	<text transform="matrix(0.9868 0 0 1 795.9697 692.2651)"><tspan x="0" y="0" class="st29 st30 st14">kick. Ik lag me ziek. In me </tspan><tspan x="0" y="31" class="st29 st30 st14">eentje lig ik hier op de </tspan><tspan x="0" y="62" class="st29 st30 st14">grond, krom van het </tspan><tspan x="0" y="93" class="st29 st30 st14">lachen. Te maf gewoon. </tspan><tspan x="0" y="124" class="st29 st30 st14">Maf is natuurlijk ook gek. </tspan><tspan x="0" y="155" class="st29 st30 st14">Te gek. Te maf. Queneau </tspan><tspan x="0" y="186" class="st29 st30 st14">was ook een mafkees. Of </tspan><tspan x="0" y="217" class="st29 st30 st14">een mafquees. Of een </tspan><tspan x="0" y="248" class="st29 st30 st14">mafqeuneau. Te maf. Te </tspan><tspan x="0" y="279" class="st29 st30 st14">Kees. Te Queneau. Ik was op </tspan><tspan x="0" y="310" class="st29 st30 st14">zoek naar Stijloefeningen </tspan><tspan x="0" y="341" class="st29 st30 st14">van die mafkees van een </tspan><tspan x="0" y="372" class="st29 st30 st14">Raymond Queneau. De cava</tspan><tspan x="519.4" y="372" class="st29 st30 st14">-</tspan><tspan x="0" y="403" class="st29 st30 st14">lerie geeft nooit op! Ik </tspan><tspan x="0" y="434" class="st29 st30 st14">loop naar de Q en als ik bij </tspan><tspan x="0" y="465" class="st29 st31 st14">de Q ben aangekomen weet </tspan><tspan x="0" y="496" class="st13 st14">ik heel even weer niet waarom ik hier </tspan><tspan x="0" y="524.7" class="st13 st32">sta, maar al snel schiet het me te binnen en </tspan></text>
	<text transform="matrix(0 -1.0133 1 0 1062.5283 1786.8838)" class="st33 st34 st35 st36">S</text>
	<text transform="matrix(0 -1.4451 1 0 752.5747 1099.126)" class="st33 st34 st37 st38">T</text>
	<text transform="matrix(0 -1.6644 1 0 764.6079 697.4653)" class="st39 st34 st40 st41">O</text>
	<text transform="matrix(0 -1.0133 1 0 1500.5264 984.3535)" class="st39 st34 st42 st43">N</text>
	<text transform="matrix(0 -1.0133 1 0 1987.0771 1755.4502)" class="st39 st34 st44 st45">E</text>
	<text transform="matrix(0 -1.0133 1 0 1987.0771 657.6396)" class="st39 st34 st42 st46">D</text>
</g>
</svg>
