<?xml version="1.0" encoding="utf-8"?>
<!-- Generator: Adobe Illustrator 19.2.0, SVG Export Plug-In . SVG Version: 6.00 Build 0)  -->
<svg version="1.1" id="Laag_1" xmlns="http://www.w3.org/2000/svg" xmlns:xlink="http://www.w3.org/1999/xlink" x="0px" y="0px"
	 viewBox="0 0 2048 1536" style="enable-background:new 0 0 2048 1536;" xml:space="preserve">
<style type="text/css">
	.st0{fill:#FF9999;}
	.st1{fill:#FF8DC6;}
	.st2{fill:#FFB3F1;}
	.st3{fill:#B097FF;}
	.st4{fill:#99B9FF;}
	.st5{fill:#99E9FF;}
	.st6{fill:#99FFFA;}
	.st7{fill:#99FFDD;}
	.st8{fill:#99FFC2;}
	.st9{fill:#99FFA7;}
	.st10{fill:#B2FF99;}
	.st11{fill:#DAFF99;}
	.st12{fill:#F8FF99;}
	.st13{fill:#FFF599;}
	.st14{fill:none;}
	.st15{fill:#231F20;}
	.st16{font-family:'Avenir-Light';}
	.st17{font-size:32px;}
	.st18{letter-spacing:0.8;}
	.st19{font-family:'Avenir-Heavy';}
	.st20{font-size:52px;}
	.st21{letter-spacing:2;}
	.st22{font-size:44px;}
	.st23{fill:none;stroke:#000000;stroke-width:30;stroke-miterlimit:10;}
	.st24{font-size:29.8202px;}
	.st25{letter-spacing:1;}
	.st26{font-family:'Avenir-Roman';}
	.st27{font-size:41px;}
	.st28{font-size:31.7136px;}
</style>
<rect x="1216.5" y="704.5" transform="matrix(6.703266e-11 -1 1 6.703266e-11 1217.6453 2752.489)" class="st0" width="1537.2" height="125.9"/>
<rect x="1148.1" y="715" transform="matrix(6.703444e-11 -1 1 6.703444e-11 1149.468 2684.0811)" class="st1" width="1537.4" height="104.6"/>
<rect x="1049.3" y="695.2" transform="matrix(6.703444e-11 -1 1 6.703444e-11 1050.6689 2585.282)" class="st2" width="1537.4" height="144.1"/>
<rect x="907.7" y="675.6" transform="matrix(6.703444e-11 -1 1 6.703444e-11 908.8345 2443.6782)" class="st3" width="1537.2" height="183.5"/>
<rect x="797.9" y="675.5" transform="matrix(6.703444e-11 -1 1 6.703444e-11 799.2774 2333.8904)" class="st4" width="1537.4" height="183.5"/>
<rect x="641.9" y="686.5" transform="matrix(6.703444e-11 -1 1 6.703444e-11 643.2611 2177.874)" class="st5" width="1537.4" height="161.5"/>
<rect x="483.6" y="661.5" transform="matrix(6.703444e-11 -1 1 6.703444e-11 484.785 2019.6288)" class="st6" width="1537.2" height="211.9"/>
<rect x="310.6" y="583.9" transform="matrix(6.703444e-11 -1 1 6.703444e-11 311.7919 1846.6356)" class="st7" width="1537.2" height="367.1"/>
<rect x="68.6" y="636.6" transform="matrix(6.703533e-11 -1 1 6.703533e-11 69.754 1604.5977)" class="st8" width="1537.2" height="261.7"/>
<rect x="-133.7" y="655.1" transform="matrix(6.703444e-11 -1 1 6.703444e-11 -132.3359 1402.2771)" class="st9" width="1537.4" height="224.4"/>
<rect x="-278.1" y="675.6" transform="matrix(6.703444e-11 -1 1 6.703444e-11 -276.9147 1257.929)" class="st10" width="1537.2" height="183.5"/>
<rect x="-414.7" y="676.2" transform="matrix(6.703444e-11 -1 1 6.703444e-11 -413.3402 1121.2728)" class="st11" width="1537.4" height="182.2"/>
<rect x="-557.8" y="705" transform="matrix(6.703444e-11 -1 1 6.703444e-11 -556.6421 978.2017)" class="st12" width="1537.2" height="124.9"/>
<rect x="-692.9" y="690.4" transform="matrix(6.703444e-11 -1 1 6.703444e-11 -691.7838 843.06)" class="st13" width="1537.2" height="154"/>
<path class="st14" d="M64.8,557.8V45.1h241.3c44.7,0,78.9,4.2,102.6,12.6c23.7,8.4,42.7,23.9,57.2,46.7s21.7,50.4,21.7,83
	c0,28.4-5.6,53-16.7,73.6c-11.1,20.6-26.4,37.3-45.8,50.2c-12.4,8.2-29.4,14.9-51,20.3c17.2,6.3,29.7,12.7,37.6,19
	c5.3,4.2,13,13.3,23.1,27.1c10.1,13.8,16.8,24.5,20.2,32l70.7,148.3H362.4L284.6,401c-9.8-20.3-18.6-33.5-26.3-39.5
	c-10.5-7.9-22.3-11.9-35.6-11.9h-12.8v208.2H64.8z"/>
<text transform="matrix(1.2279 0 0 1 64.7994 69.3184)"><tspan x="0" y="0" class="st15 st16 st17 st18">Bus 21. Ik stap </tspan><tspan x="0" y="27.6" class="st15 st16 st17 st18">uit. Het is een gure </tspan><tspan x="0" y="55.3" class="st15 st16 st17 st18">dag, geen ultravio</tspan><tspan x="283.8" y="55.3" class="st15 st16 st17 st18">-</tspan><tspan x="0" y="82.9" class="st15 st16 st17 st18">lette zonnestralen die </tspan><tspan x="0" y="110.6" class="st15 st16 st17 st18">het tere huidje van </tspan><tspan x="0" y="138.2" class="st15 st16 st17 st18">mijn zoontje aantas</tspan><tspan x="301.3" y="138.2" class="st15 st16 st17 st18">-</tspan><tspan x="0" y="165.9" class="st15 st16 st17 st18">ten. Hij ligt te slapen </tspan><tspan x="0" y="193.5" class="st15 st16 st17 st18">in z’n paarse kinder</tspan><tspan x="302" y="193.5" class="st15 st16 st17 st18">-</tspan><tspan x="0" y="221.2" class="st15 st16 st17 st18">wagen. De reizigers </tspan><tspan x="0" y="248.8" class="st15 st16 st17 st18">lopen van en naar </tspan><tspan x="0" y="276.5" class="st15 st16 st17 st18">CS. Ik ga naar de </tspan><tspan x="0" y="304.1" class="st15 st16 st17 st18">Open</tspan><tspan x="87.5" y="304.1" class="st15 st16 st17 st18">-</tspan><tspan x="166.3" y="304.1" class="st15 st16 st17 st18">bare </tspan><tspan x="0" y="331.8" class="st15 st16 st17 st18">Biblio</tspan><tspan x="90.2" y="331.8" class="st15 st16 st17 st18">-</tspan><tspan x="179" y="331.8" class="st15 st16 st17 st18">theek </tspan><tspan x="0" y="359.4" class="st15 st16 st17 st18">om </tspan><tspan x="190.2" y="359.4" class="st15 st16 st17 st18">Stijloe</tspan><tspan x="288.3" y="359.4" class="st15 st16 st17 st18">-</tspan><tspan x="0" y="387" class="st15 st16 st17 st18">fenin</tspan><tspan x="77.6" y="387" class="st15 st16 st17 st18">-</tspan><tspan x="201.4" y="387" class="st15 st16 st17 st18">gen van </tspan><tspan x="0" y="414.7" class="st15 st16 st17 st18">Ray</tspan><tspan x="54.6" y="414.7" class="st15 st16 st17 st18">-</tspan><tspan x="212.6" y="414.7" class="st15 st16 st17 st18">mond </tspan><tspan x="0" y="442.3" class="st15 st16 st17 st18">Que</tspan><tspan x="66.5" y="442.3" class="st15 st16 st17 st18">-</tspan><tspan x="223.7" y="442.3" class="st15 st16 st17 st18">neau te </tspan><tspan x="0" y="470" class="st15 st16 st17 st18">lenen.</tspan></text>
<polygon points="588.4,55.7 995.3,55.7 995.3,160.4 740.9,160.4 740.9,238.5 976.8,238.5 976.8,338.9 740.9,338.9 740.9,436 
	1002.9,436 1002.9,547.2 588.4,547.2 "/>
<path class="st14" d="M1518.1,392.1V281.7h392.6v225.1c-75.3,32.9-141.9,55.3-199.7,67.2c-57.9,11.9-126.5,17.8-205.9,17.8
	c-97.8,0-177.4-10.7-239.1-32.1c-61.6-21.4-109.4-53.3-143.3-95.6c-33.9-42.3-50.8-90.9-50.8-145.7c0-57.7,18.5-107.9,55.6-150.6
	c37.1-42.7,91.4-75.1,163-97.2c55.8-17.1,131-25.6,225.4-25.6c91,0,159.1,5.3,204.3,15.9s82.6,27,112.4,49.3
	c29.8,22.3,52.2,50.5,67.2,84.7l-245.4,28.2c-10.1-20-27.3-35.4-51.4-46c-24.2-10.6-55-15.9-92.5-15.9
	c-55.8,0-100.4,12.4-133.5,37.3s-49.7,64.2-49.7,118.1c0,57.2,16.8,98.1,50.3,122.6c33.5,24.5,80.3,36.8,140.2,36.8
	c28.5,0,55.6-2.6,81.5-7.9c25.8-5.2,55.5-14.2,88.8-26.8v-49.4H1518.1z"/>
<text transform="matrix(1 0 0 1 1429.855 84.4382)"><tspan x="0" y="0" class="st15 st19 st20 st21">Voor ik </tspan><tspan x="-133.1" y="31.2" class="st15 st19 st20 st21">de bibliotheek in </tspan><tspan x="-231" y="62.5" class="st15 st19 st20 st21">ga, wordt ik aangespro</tspan><tspan x="385.5" y="62.5" class="st15 st19 st20 st21">-</tspan><tspan x="-264.4" y="93.7" class="st15 st19 st20 st21">ken door </tspan><tspan x="259.2" y="93.7" class="st15 st19 st20 st21">een </tspan><tspan x="-266" y="125" class="st15 st19 st20 st21">vrouw </tspan><tspan x="230.6" y="125" class="st15 st19 st20 st21">met </tspan><tspan x="-296.2" y="156.2" class="st15 st19 st20 st21">zwarte </tspan><tspan x="-318.9" y="187.4" class="st15 st19 st20 st21">krullen. </tspan><tspan x="-304.9" y="218.7" class="st15 st19 st20 st21">Of dit </tspan><tspan x="-348.5" y="249.9" class="st15 st19 st20 st21">het post</tspan><tspan x="-127.1" y="249.9" class="st15 st19 st20 st21">-</tspan><tspan x="144.7" y="249.9" class="st15 st19 st20 st21">kantoor is. </tspan><tspan x="-345.6" y="281.2" class="st15 st19 st20 st21">Nee, zeg </tspan><tspan x="126.2" y="281.2" class="st15 st19 st20 st21">ik, daarvoor </tspan><tspan x="-313.6" y="312.4" class="st15 st19 st20 st21">moet u </tspan><tspan x="270.7" y="312.4" class="st15 st19 st20 st21">naar de </tspan><tspan x="-283.5" y="343.6" class="st15 st19 st20 st21">Raad</tspan><tspan x="-153" y="343.6" class="st15 st19 st20 st21">-</tspan><tspan x="308.6" y="343.6" class="st15 st19 st20 st21">huis</tspan><tspan x="414.1" y="343.6" class="st15 st19 st20 st21">-</tspan><tspan x="-274.5" y="374.9" class="st15 st19 st20 st21">straat. </tspan><tspan x="337.6" y="374.9" class="st15 st19 st20 st21">Ze </tspan><tspan x="-231" y="406.1" class="st15 st19 st20 st21">draait </tspan><tspan x="250.2" y="406.1" class="st15 st19 st20 st21">zich om </tspan><tspan x="-142.5" y="437.4" class="st15 st19 st20 st21">en rent achter een </tspan><tspan x="-154.5" y="468.6" class="st15 st19 st20 st21">groene Renault 21 </tspan><tspan x="27.2" y="499.8" class="st15 st19 st20 st21">aan.</tspan></text>
<polygon class="st14" points="189.5,599.2 691.3,599.2 691.3,704.2 377.5,704.2 377.5,782.5 668.5,782.5 668.5,883 377.5,883 
	377.5,980.3 700.6,980.3 700.6,1091.8 189.5,1091.8 "/>
<text transform="matrix(1 0 0 1 189.4754 632.5132)"><tspan x="0" y="0" class="st15 st16 st22">Amsterdam is één grote </tspan><tspan x="0" y="36" class="st15 st16 st22">bouwput hier. Ik moet </tspan><tspan x="0" y="71.9" class="st15 st16 st22">over plan</tspan><tspan x="173.1" y="71.9" class="st15 st16 st22">-</tspan><tspan x="0" y="107.9" class="st15 st16 st22">ken </tspan><tspan x="0" y="143.9" class="st15 st16 st22">lopen. </tspan><tspan x="0" y="179.9" class="st15 st16 st22">Een </tspan><tspan x="0" y="215.8" class="st15 st16 st22">groep Japanners pas</tspan><tspan x="392.5" y="215.8" class="st15 st16 st22">-</tspan><tspan x="0" y="251.8" class="st15 st16 st22">seert me. </tspan><tspan x="0" y="287.8" class="st15 st16 st22">Ze </tspan><tspan x="0" y="323.8" class="st15 st16 st22">dragen </tspan><tspan x="0" y="359.7" class="st15 st16 st22">allemaal </tspan><tspan x="0" y="395.7" class="st15 st16 st22">zo’n driehoekige, blauwe </tspan><tspan x="0" y="431.7" class="st15 st16 st22">doos met daarin een </tspan></text>
<polygon class="st23" points="815.6,591.8 941.1,591.8 1105.5,833 1105.5,591.8 1232.4,591.8 1232.4,1027.3 1105.5,1027.3 
	942,787.5 942,1027.3 815.6,1027.3 "/>
<path class="st23" d="M1199.4,647.1h229.8c38.3,0,67.7,9.5,88.2,28.5c20.5,19,30.8,42.5,30.8,70.5c0,23.5-7.3,43.6-21.9,60.4
	c-9.7,11.2-24,20.1-42.7,26.6c28.5,6.9,49.4,18.6,62.9,35.3c13.4,16.7,20.1,37.6,20.1,62.9c0,20.6-4.8,39-14.4,55.5
	c-9.6,16.4-22.7,29.4-39.3,38.9c-10.3,6-25.8,10.3-46.6,13c-27.6,3.6-46,5.4-55,5.4h-211.9V647.1z"/>
<path class="st14" d="M1642.8,815.4c0-56.8,13.3-101,39.9-132.6c26.6-31.6,63.7-47.4,111.2-47.4c48.7,0,86.2,15.5,112.6,46.6
	s39.5,74.6,39.5,130.6c0,40.7-5.8,74-17.3,100c-11.5,26-28.1,46.3-49.9,60.7s-48.9,21.7-81.3,21.7c-33,0-60.3-6.2-81.9-18.7
	c-21.6-12.5-39.2-32.3-52.6-59.3C1649.5,889.9,1642.8,856,1642.8,815.4z"/>
<text transform="matrix(1 0 0 1 1750.5276 683.4154)"><tspan x="0" y="0" class="st15 st16 st24 st25">Boven</tspan><tspan x="-56.3" y="25.6" class="st15 st16 st24 st25"> zoek ik tever</tspan><tspan x="135" y="25.6" class="st15 st16 st24 st25">-</tspan><tspan x="-86.6" y="51.1" class="st15 st16 st24 st25">geefs naar Stijloe</tspan><tspan x="165.1" y="51.1" class="st15 st16 st24 st25">-</tspan><tspan x="-94.7" y="76.7" class="st15 st16 st24 st25">feningen. Het boek </tspan><tspan x="-77.6" y="102.2" class="st15 st16 st24 st25">ligt niet waar het </tspan><tspan x="-85.6" y="127.8" class="st15 st16 st24 st25">hoort te liggen. Ik </tspan><tspan x="-105.4" y="153.4" class="st15 st16 st24 st25">kijk op de computer. </tspan><tspan x="-85.5" y="182.2" class="st15 st16 st24 st25">Daar staat dat het </tspan><tspan x="-82.7" y="211.1" class="st15 st16 st24 st25">boek wel degelijk </tspan><tspan x="-63.9" y="240" class="st15 st16 st24 st25">aanwezig moet </tspan><tspan x="-45.2" y="268.9" class="st15 st16 st24 st25">zijn. Ik vraag </tspan><tspan x="-8.7" y="297.7" class="st15 st16 st24 st25">het aan </tspan></text>
<path class="st14" d="M1496.2,1351.6V1269h341.5v168.6c-65.5,24.6-123.4,41.4-173.7,50.3c-50.3,8.9-110,13.4-179.1,13.4
	c-85,0-154.3-8-207.9-24c-53.6-16-95.1-39.9-124.6-71.6c-29.5-31.7-44.2-68.1-44.2-109.1c0-43.2,16.1-80.8,48.4-112.8
	c32.3-32,79.5-56.2,141.8-72.8c48.6-12.8,113.9-19.2,196-19.2c79.2,0,138.4,4,177.7,11.9c39.3,7.9,71.9,20.2,97.8,36.9
	c25.9,16.7,45.4,37.8,58.4,63.4l-213.4,21.1c-8.8-15-23.7-26.5-44.7-34.4c-21-8-47.8-11.9-80.4-11.9c-48.6,0-87.3,9.3-116.1,28
	s-43.3,48.1-43.3,88.5c0,42.9,14.6,73.5,43.7,91.8c29.2,18.4,69.8,27.5,121.9,27.5c24.8,0,48.4-2,70.9-5.9
	c22.5-3.9,48.2-10.6,77.2-20.1v-37H1496.2z"/>
<text transform="matrix(1 0 0 1 1433.345 1122.788)"><tspan x="0" y="0" class="st15 st26 st27 st25">Op het </tspan><tspan x="-142.3" y="33.6" class="st15 st26 st27 st25">Bos en Lommerplein, </tspan><tspan x="-246.5" y="67.2" class="st15 st26 st27 st25">vlakbij mijn </tspan><tspan x="172.3" y="67.2" class="st15 st26 st27 st25">woning, </tspan><tspan x="-255.3" y="100.8" class="st15 st26 st27 st25">koop ik </tspan><tspan x="-296" y="134.4" class="st15 st26 st27 st25">schoenen </tspan><tspan x="-303" y="168" class="st15 st26 st27 st25">voor mijn </tspan><tspan x="-291.2" y="201.6" class="st15 st26 st27 st25">zoontje. </tspan><tspan x="72.5" y="201.6" class="st15 st26 st27 st25">Infrarode stralen </tspan><tspan x="-284.4" y="235.2" class="st15 st26 st27 st25">scannen </tspan><tspan x="283" y="235.2" class="st15 st26 st27 st25">de </tspan><tspan x="-284.3" y="268.9" class="st15 st26 st27 st25">streepjes</tspan><tspan x="-106.5" y="268.9" class="st15 st26 st27 st25">-</tspan><tspan x="223.2" y="268.9" class="st15 st26 st27 st25">code: 10 </tspan><tspan x="-249.4" y="302.5" class="st15 st26 st27 st25">% korting. </tspan><tspan x="182.9" y="302.5" class="st15 st26 st27 st25">Het kan mij </tspan><tspan x="-192.4" y="336.1" class="st15 st26 st27 st25">maar in beperkte mate op</tspan><tspan x="317" y="336.1" class="st15 st26 st27 st25">-</tspan><tspan x="-16.8" y="369.7" class="st15 st26 st27 st25">beuren.</tspan></text>
<path class="st14" d="M420.4,1306.5c0-67.7,25.1-120.4,75.3-158.1c50.2-37.7,120.1-56.6,209.7-56.6c91.8,0,162.6,18.5,212.3,55.6
	s74.5,89,74.5,155.7c0,48.5-10.9,88.2-32.6,119.2c-21.7,31-53.1,55.2-94.1,72.4c-41,17.3-92.1,25.9-153.4,25.9
	c-62.2,0-113.7-7.4-154.5-22.3c-40.8-14.9-73.8-38.5-99.2-70.7C433.1,1395.3,420.4,1355,420.4,1306.5z"/>
<text transform="matrix(1 0 0 1 678.3695 1115.7676)"><tspan x="0" y="0" class="st15 st16 st28 st25">een </tspan><tspan x="-117.6" y="28.9" class="st15 st16 st28 st25">medewerker, wiens </tspan><tspan x="-147.6" y="57.7" class="st15 st16 st28 st25">ongezonde voorkomen </tspan><tspan x="-184.9" y="86.6" class="st15 st16 st28 st25">doet vermoeden dat hij een </tspan><tspan x="-217.4" y="115.5" class="st15 st16 st28 st25">lichte vorm van geelzucht onder </tspan><tspan x="-215" y="144.4" class="st15 st16 st28 st25">de leden heeft. De medewerker </tspan><tspan x="-253.4" y="173.2" class="st15 st16 st28 st25">kijkt met mij mee, maar moet tot zijn </tspan><tspan x="-253.7" y="202.1" class="st15 st16 st28 st25">spijt constateren dat het boek inder</tspan><tspan x="298.9" y="202.1" class="st15 st16 st28 st25">-</tspan><tspan x="-253.7" y="231" class="st15 st16 st28 st25">daad niet aanwezig is. Hij zegt dat ik </tspan><tspan x="-242.6" y="259.9" class="st15 st16 st28 st25">een mailtje naar het magazijn moet </tspan><tspan x="-186.7" y="288.7" class="st15 st16 st28 st25">sturen. Die hebben nog een </tspan><tspan x="-210.5" y="317.6" class="st15 st16 st28 st25">exemplaar. Hij veegt wat zweet </tspan><tspan x="-166" y="346.5" class="st15 st16 st28 st25">van zijn voorhoofd af met </tspan><tspan x="-125.3" y="375.4" class="st15 st16 st28 st25">een oranje zakdoek. </tspan><tspan x="20.1" y="404.2" class="st15 st16 st28 st25">Ik </tspan></text>
</svg>
