<?xml version="1.0" encoding="utf-8"?>
<!-- Generator: Adobe Illustrator 19.2.0, SVG Export Plug-In . SVG Version: 6.00 Build 0)  -->
<svg version="1.1" id="Laag_1" xmlns="http://www.w3.org/2000/svg" xmlns:xlink="http://www.w3.org/1999/xlink" x="0px" y="0px"
	 viewBox="0 0 2048 1828.7" style="enable-background:new 0 0 2048 1828.7;" xml:space="preserve">
<style type="text/css">
	.st0{fill:#FF9999;}
	.st1{fill:#FF8DC6;}
	.st2{fill:#FFB3F1;}
	.st3{fill:#B097FF;}
	.st4{fill:#99B9FF;}
	.st5{fill:#99E9FF;}
	.st6{fill:#99FFFA;}
	.st7{fill:#99FFDD;}
	.st8{fill:#99FFC2;}
	.st9{fill:#99FFA7;}
	.st10{fill:#B2FF99;}
	.st11{fill:#DAFF99;}
	.st12{fill:#F8FF99;}
	.st13{fill:#FFF599;}
	.st14{fill:none;}
	.st15{fill:#231F20;}
	.st16{font-family:'Avenir-Light';}
	.st17{font-size:26.0335px;}
	.st18{letter-spacing:0.8;}
	.st19{font-family:'Avenir-Heavy';}
	.st20{font-size:40.2337px;}
	.st21{letter-spacing:1;}
	.st22{font-size:42.6003px;}
	.st23{fill:none;stroke:#000000;stroke-width:30;stroke-miterlimit:10;}
	.st24{font-size:29.8202px;}
	.st25{font-family:'Avenir-Roman';}
	.st26{font-size:50.6471px;}
	.st27{font-size:31.7136px;}
</style>
<rect y="1716.4" class="st0" width="2048" height="112.3"/>
<rect y="1665" class="st1" width="2048.3" height="93.4"/>
<rect y="1559.2" class="st2" width="2048.3" height="128.6"/>
<rect y="1415.1" class="st3" width="2048" height="163.8"/>
<rect y="1317.3" class="st4" width="2048.3" height="163.8"/>
<rect y="1187.9" class="st5" width="2048.3" height="144.1"/>
<rect y="1024.1" class="st6" width="2048" height="189.1"/>
<rect y="800.5" class="st7" width="2048" height="327.6"/>
<rect y="631.5" class="st8" width="2048" height="233.5"/>
<rect y="467.7" class="st9" width="2048.3" height="200.2"/>
<rect y="357" class="st10" width="2048" height="163.8"/>
<rect y="235.8" class="st11" width="2048.3" height="162.6"/>
<rect y="133.6" class="st12" width="2048" height="111.5"/>
<rect class="st13" width="2048" height="137.5"/>
<path class="st14" d="M144.1,613.4V100.7h207.3c38.4,0,67.8,4.2,88.2,12.6c20.3,8.4,36.7,23.9,49.2,46.7
	c12.4,22.7,18.7,50.4,18.7,83c0,28.4-4.8,53-14.3,73.6c-9.6,20.6-22.7,37.3-39.4,50.2c-10.7,8.2-25.3,14.9-43.8,20.3
	c14.8,6.3,25.6,12.7,32.3,19c4.6,4.2,11.2,13.3,19.9,27.1c8.7,13.8,14.5,24.5,17.4,32l60.8,148.3H399.9l-66.9-156.8
	c-8.4-20.3-16-33.5-22.6-39.5c-9-7.9-19.2-11.9-30.6-11.9h-11v208.2H144.1z"/>
<text transform="matrix(1.2279 0 0 1 144.0992 120.4089)"><tspan x="0" y="0" class="st15 st16 st17 st18">Bus 21. Ik stap </tspan><tspan x="0" y="27.6" class="st15 st16 st17 st18">uit. Het is een gure </tspan><tspan x="0" y="55.3" class="st15 st16 st17 st18">dag, geen ultraviolet</tspan><tspan x="263.7" y="55.3" class="st15 st16 st17 st18">-</tspan><tspan x="0" y="82.9" class="st15 st16 st17 st18">te zonnestralen die </tspan><tspan x="0" y="110.6" class="st15 st16 st17 st18">het tere huidje van </tspan><tspan x="0" y="138.2" class="st15 st16 st17 st18">mijn zoontje aantasten. </tspan><tspan x="0" y="165.9" class="st15 st16 st17 st18">Hij ligt te slapen in z’n </tspan><tspan x="0" y="193.5" class="st15 st16 st17 st18">paarse kinderwagen. </tspan><tspan x="0" y="221.2" class="st15 st16 st17 st18">De reizigers lopen </tspan><tspan x="0" y="248.8" class="st15 st16 st17 st18">van en naar CS. Ik </tspan><tspan x="0" y="276.5" class="st15 st16 st17 st18">ga naar de Open</tspan><tspan x="214" y="276.5" class="st15 st16 st17 st18">-</tspan><tspan x="0" y="304.1" class="st15 st16 st17 st18">bare Bi</tspan><tspan x="90" y="304.1" class="st15 st16 st17 st18">-</tspan><tspan x="140.5" y="304.1" class="st15 st16 st17 st18">blio</tspan><tspan x="188.9" y="304.1" class="st15 st16 st17 st18">-</tspan><tspan x="0" y="331.8" class="st15 st16 st17 st18">theek </tspan><tspan x="152.3" y="331.8" class="st15 st16 st17 st18">om Stij</tspan><tspan x="240.3" y="331.8" class="st15 st16 st17 st18">-</tspan><tspan x="0" y="359.4" class="st15 st16 st17 st18">loefe</tspan><tspan x="64.1" y="359.4" class="st15 st16 st17 st18">-</tspan><tspan x="161.9" y="359.4" class="st15 st16 st17 st18">ningen </tspan><tspan x="0" y="387" class="st15 st16 st17 st18">van </tspan><tspan x="171.5" y="387" class="st15 st16 st17 st18">Ray</tspan><tspan x="215.9" y="387" class="st15 st16 st17 st18">-</tspan><tspan x="0" y="414.7" class="st15 st16 st17 st18">mond </tspan><tspan x="181.1" y="414.7" class="st15 st16 st17 st18">Que</tspan><tspan x="235.2" y="414.7" class="st15 st16 st17 st18">-</tspan><tspan x="0" y="442.3" class="st15 st16 st17 st18">neau te </tspan><tspan x="190.7" y="442.3" class="st15 st16 st17 st18">lenen.</tspan></text>
<polygon points="514.9,62.6 921.7,62.6 921.7,167.3 667.3,167.3 667.3,245.4 903.3,245.4 903.3,345.7 667.3,345.7 667.3,442.8 
	929.3,442.8 929.3,554 514.9,554 "/>
<path class="st14" d="M1313.1,386.1V275.7h277.3v225.1c-53.2,32.9-100.2,55.3-141.1,67.2c-40.9,11.9-89.3,17.8-145.4,17.8
	c-69,0-125.3-10.7-168.8-32.1c-43.5-21.4-77.2-53.3-101.2-95.6c-23.9-42.3-35.9-90.9-35.9-145.7c0-57.7,13.1-107.9,39.3-150.6
	s64.6-75.1,115.1-97.2c39.4-17.1,92.5-25.6,159.2-25.6c64.3,0,112.4,5.3,144.3,15.9c31.9,10.6,58.4,27,79.4,49.3
	c21,22.3,36.8,50.5,47.4,84.7l-173.3,28.2c-7.2-20-19.3-35.4-36.3-46c-17.1-10.6-38.8-15.9-65.3-15.9c-39.4,0-70.9,12.4-94.3,37.3
	s-35.1,64.2-35.1,118.1c0,57.2,11.8,98.1,35.5,122.6c23.7,24.5,56.7,36.8,99,36.8c20.1,0,39.3-2.6,57.6-7.9
	c18.3-5.2,39.2-14.2,62.7-26.8v-49.4H1313.1z"/>
<text transform="matrix(1 0 0 1 1268.5861 69.5764)"><tspan x="0" y="0" class="st15 st19 st20 st21">Voor </tspan><tspan x="-126.2" y="31.2" class="st15 st19 st20 st21">ik de bibliotheek </tspan><tspan x="-156.4" y="62.5" class="st15 st19 st20 st21">in ga, wordt ik aan</tspan><tspan x="228.9" y="62.5" class="st15 st19 st20 st21">-</tspan><tspan x="-189.1" y="93.7" class="st15 st19 st20 st21">gespro</tspan><tspan x="-46.6" y="93.7" class="st15 st19 st20 st21">-</tspan><tspan x="98.2" y="93.7" class="st15 st19 st20 st21">ken door </tspan><tspan x="-182.1" y="125" class="st15 st19 st20 st21">een </tspan><tspan x="143.2" y="125" class="st15 st19 st20 st21">vrouw </tspan><tspan x="-201.6" y="156.2" class="st15 st19 st20 st21">met </tspan><tspan x="-241" y="187.4" class="st15 st19 st20 st21">zwarte </tspan><tspan x="-254.1" y="218.7" class="st15 st19 st20 st21">krullen. </tspan><tspan x="-240.1" y="249.9" class="st15 st19 st20 st21">Of dit </tspan><tspan x="55.3" y="249.9" class="st15 st19 st20 st21">het postkan</tspan><tspan x="298.3" y="249.9" class="st15 st19 st20 st21">-</tspan><tspan x="-251.8" y="281.2" class="st15 st19 st20 st21">toor is. </tspan><tspan x="60.5" y="281.2" class="st15 st19 st20 st21">Nee, zeg ik, </tspan><tspan x="-227.5" y="312.4" class="st15 st19 st20 st21">daar</tspan><tspan x="-136.2" y="312.4" class="st15 st19 st20 st21">-</tspan><tspan x="58.9" y="312.4" class="st15 st19 st20 st21">voor moet u </tspan><tspan x="-244.4" y="343.6" class="st15 st19 st20 st21">naar de </tspan><tspan x="186.3" y="343.6" class="st15 st19 st20 st21">Raad</tspan><tspan x="287.3" y="343.6" class="st15 st19 st20 st21">-</tspan><tspan x="-201.8" y="374.9" class="st15 st19 st20 st21">huis</tspan><tspan x="-120.2" y="374.9" class="st15 st19 st20 st21">-</tspan><tspan x="177.9" y="374.9" class="st15 st19 st20 st21">straat. </tspan><tspan x="-222.5" y="406.1" class="st15 st19 st20 st21">Ze draait </tspan><tspan x="153.1" y="406.1" class="st15 st19 st20 st21">zich om </tspan><tspan x="-132" y="437.4" class="st15 st19 st20 st21">en rent achter een </tspan><tspan x="-141.3" y="468.6" class="st15 st19 st20 st21">groene Renault 21 </tspan><tspan x="-0.5" y="499.8" class="st15 st19 st20 st21">aan.</tspan></text>
<polygon class="st14" points="144.1,663.4 645.9,663.4 645.9,768.3 332.1,768.3 332.1,846.6 623.2,846.6 623.2,947.2 332.1,947.2 
	332.1,1044.5 655.3,1044.5 655.3,1156 144.1,1156 "/>
<text transform="matrix(1 0 0 1 144.0984 695.6179)"><tspan x="0" y="0" class="st15 st16 st22 st21">Amsterdam is één grote </tspan><tspan x="0" y="36" class="st15 st16 st22 st21">bouwput hier. Ik moet </tspan><tspan x="0" y="71.9" class="st15 st16 st22 st21">over planken lopen. Een </tspan><tspan x="0" y="107.9" class="st15 st16 st22 st21">groep </tspan><tspan x="0" y="143.9" class="st15 st16 st22 st21">Japan</tspan><tspan x="120" y="143.9" class="st15 st16 st22 st21">-</tspan><tspan x="0" y="179.9" class="st15 st16 st22 st21">ners pas</tspan><tspan x="165.9" y="179.9" class="st15 st16 st22 st21">-</tspan><tspan x="0" y="215.8" class="st15 st16 st22 st21">seert me. Ze dragen al</tspan><tspan x="449" y="215.8" class="st15 st16 st22 st21">-</tspan><tspan x="0" y="251.8" class="st15 st16 st22 st21">lemaal </tspan><tspan x="0" y="287.8" class="st15 st16 st22 st21">zo’n drie</tspan><tspan x="173.4" y="287.8" class="st15 st16 st22 st21">-</tspan><tspan x="0" y="323.8" class="st15 st16 st22 st21">hoekige, </tspan><tspan x="0" y="359.7" class="st15 st16 st22 st21">blauwe </tspan><tspan x="0" y="395.7" class="st15 st16 st22 st21">doos met daarin een </tspan><tspan x="0" y="431.7" class="st15 st16 st22 st21">poster van Van Gogh.</tspan></text>
<polygon class="st23" points="744.4,636.6 869.9,636.6 1034.2,877.8 1034.2,636.6 1161.1,636.6 1161.1,1072.1 1034.2,1072.1 
	870.8,832.2 870.8,1072.1 744.4,1072.1 "/>
<path class="st23" d="M1250.3,655.9H1480c38.3,0,67.7,9.5,88.2,28.5c20.5,19,30.8,42.5,30.8,70.5c0,23.5-7.3,43.6-21.9,60.4
	c-9.7,11.2-24,20.1-42.7,26.6c28.5,6.9,49.4,18.6,62.9,35.3c13.4,16.7,20.1,37.6,20.1,62.9c0,20.6-4.8,39-14.4,55.5
	c-9.6,16.4-22.7,29.4-39.3,38.9c-10.3,6-25.8,10.3-46.6,13c-27.6,3.6-46,5.4-55,5.4h-211.9V655.9z"/>
<path class="st14" d="M1669.9,865.3c0-56.8,13.3-101,39.9-132.6c26.6-31.6,63.7-47.4,111.2-47.4c48.7,0,86.2,15.5,112.6,46.6
	c26.3,31.1,39.5,74.6,39.5,130.6c0,40.7-5.8,74-17.3,100c-11.5,26-28.1,46.3-49.9,60.7c-21.8,14.5-48.9,21.7-81.3,21.7
	c-33,0-60.3-6.2-81.9-18.7c-21.6-12.5-39.2-32.3-52.6-59.3C1676.6,939.8,1669.9,905.9,1669.9,865.3z"/>
<text transform="matrix(1 0 0 1 1777.6372 733.3239)"><tspan x="0" y="0" class="st15 st16 st24 st21">Boven</tspan><tspan x="-56.3" y="25.6" class="st15 st16 st24 st21"> zoek ik tever</tspan><tspan x="135" y="25.6" class="st15 st16 st24 st21">-</tspan><tspan x="-86.6" y="51.1" class="st15 st16 st24 st21">geefs naar Stijloe</tspan><tspan x="165.1" y="51.1" class="st15 st16 st24 st21">-</tspan><tspan x="-94.7" y="76.7" class="st15 st16 st24 st21">feningen. Het boek </tspan><tspan x="-77.6" y="102.2" class="st15 st16 st24 st21">ligt niet waar het </tspan><tspan x="-85.6" y="127.8" class="st15 st16 st24 st21">hoort te liggen. Ik </tspan><tspan x="-105.4" y="153.4" class="st15 st16 st24 st21">kijk op de computer. </tspan><tspan x="-85.5" y="182.2" class="st15 st16 st24 st21">Daar staat dat het </tspan><tspan x="-82.7" y="211.1" class="st15 st16 st24 st21">boek wel degelijk </tspan><tspan x="-63.9" y="240" class="st15 st16 st24 st21">aanwezig moet </tspan><tspan x="-45.2" y="268.9" class="st15 st16 st24 st21">zijn. Ik vraag </tspan><tspan x="-8.7" y="297.7" class="st15 st16 st24 st21">het aan </tspan></text>
<path class="st14" d="M1270.1,1554.4v-127.2h290.8v259.4c-55.8,37.9-105.1,63.7-147.9,77.4c-42.9,13.7-93.7,20.5-152.5,20.5
	c-72.4,0-131.4-12.3-177-37c-45.6-24.6-81-61.4-106.1-110.1c-25.1-48.8-37.6-104.7-37.6-167.9c0-66.5,13.7-124.3,41.2-173.5
	s67.7-86.5,120.7-112c41.3-19.7,97-29.5,166.9-29.5c67.4,0,117.9,6.1,151.3,18.3s61.2,31.1,83.3,56.8c22.1,25.7,38.6,58.2,49.7,97.6
	l-181.7,32.5c-7.5-23.1-20.2-40.7-38.1-53c-17.9-12.2-40.7-18.4-68.5-18.4c-41.4,0-74.3,14.3-98.9,43c-24.6,28.7-36.8,74-36.8,136.1
	c0,65.9,12.4,113,37.2,141.3c24.8,28.3,59.4,42.4,103.8,42.4c21.1,0,41.2-3,60.4-9.1c19.1-6,41.1-16.4,65.8-30.9v-56.9H1270.1z"/>
<text transform="matrix(1 0 0 1 1237.0787 1192.9354)"><tspan x="0" y="0" class="st15 st25 st26 st21">Op </tspan><tspan x="-92.1" y="33.6" class="st15 st25 st26 st21">het Bos en </tspan><tspan x="-197.2" y="67.2" class="st15 st25 st26 st21">Lommerplein, vlak</tspan><tspan x="243.4" y="67.2" class="st15 st25 st26 st21">-</tspan><tspan x="-209.6" y="100.8" class="st15 st25 st26 st21">bij mijn </tspan><tspan x="82.3" y="100.8" class="st15 st25 st26 st21">woning, </tspan><tspan x="-249.4" y="134.4" class="st15 st25 st26 st21">koop ik </tspan><tspan x="132.3" y="134.4" class="st15 st25 st26 st21">schoe</tspan><tspan x="272.1" y="134.4" class="st15 st25 st26 st21">-</tspan><tspan x="-224.1" y="168" class="st15 st25 st26 st21">nen </tspan><tspan x="-245.3" y="201.6" class="st15 st25 st26 st21">voor </tspan><tspan x="-248.6" y="235.2" class="st15 st25 st26 st21">mijn </tspan><tspan x="-268.6" y="268.9" class="st15 st25 st26 st21">zoon</tspan><tspan x="-152" y="268.9" class="st15 st25 st26 st21">-</tspan><tspan x="43.4" y="268.9" class="st15 st25 st26 st21">tje. Infraro</tspan><tspan x="296.6" y="268.9" class="st15 st25 st26 st21">-</tspan><tspan x="-294.4" y="302.5" class="st15 st25 st26 st21">de stra</tspan><tspan x="-127.4" y="302.5" class="st15 st25 st26 st21">-</tspan><tspan x="37.3" y="302.5" class="st15 st25 st26 st21">len scannen </tspan><tspan x="-230.8" y="336.1" class="st15 st25 st26 st21">de </tspan><tspan x="60.2" y="336.1" class="st15 st25 st26 st21">streepjes</tspan><tspan x="279.8" y="336.1" class="st15 st25 st26 st21">-</tspan><tspan x="-262.4" y="369.7" class="st15 st25 st26 st21">code: </tspan><tspan x="182.8" y="369.7" class="st15 st25 st26 st21">10 % </tspan><tspan x="-234.1" y="403.3" class="st15 st25 st26 st21">kor</tspan><tspan x="-156.5" y="403.3" class="st15 st25 st26 st21">-</tspan><tspan x="186.8" y="403.3" class="st15 st25 st26 st21">ting. </tspan><tspan x="-215.1" y="436.9" class="st15 st25 st26 st21">Het </tspan><tspan x="200" y="436.9" class="st15 st25 st26 st21">kan </tspan><tspan x="-181.8" y="470.5" class="st15 st25 st26 st21">mij </tspan><tspan x="136.6" y="470.5" class="st15 st25 st26 st21">maar in </tspan><tspan x="-181.4" y="504.1" class="st15 st25 st26 st21">beperkte mate op</tspan><tspan x="254" y="504.1" class="st15 st25 st26 st21">-</tspan><tspan x="-56.5" y="537.7" class="st15 st25 st26 st21">beuren.</tspan></text>
<path class="st14" d="M237.1,1481.4c0-87.8,26.6-156.2,79.8-205.1c53.2-48.9,127.3-73.4,222.3-73.4c97.4,0,172.4,24,225.1,72.1
	c52.7,48.1,79,115.4,79,202c0,62.9-11.5,114.4-34.5,154.7c-23,40.3-56.3,71.6-99.8,94c-43.5,22.4-97.7,33.6-162.6,33.6
	c-66,0-120.6-9.7-163.8-29c-43.2-19.3-78.3-49.9-105.2-91.8C250.5,1596.7,237.1,1544.3,237.1,1481.4z"/>
<text transform="matrix(1 0 0 1 512.1911 1226.8446)"><tspan x="0" y="0" class="st15 st16 st27 st21">een </tspan><tspan x="-117.5" y="28.9" class="st15 st16 st27 st21">medewerker, wiens </tspan><tspan x="-147.4" y="57.7" class="st15 st16 st27 st21">ongezonde voorkomen </tspan><tspan x="-184.6" y="86.6" class="st15 st16 st27 st21">doet vermoeden dat hij een </tspan><tspan x="-217" y="115.5" class="st15 st16 st27 st21">lichte vorm van geelzucht onder </tspan><tspan x="-214.6" y="144.4" class="st15 st16 st27 st21">de leden heeft. De medewerker </tspan><tspan x="-253" y="173.2" class="st15 st16 st27 st21">kijkt met mij mee, maar moet tot zijn </tspan><tspan x="-253.1" y="202.1" class="st15 st16 st27 st21">spijt constateren dat het boek inder</tspan><tspan x="299.4" y="202.1" class="st15 st16 st27 st21">-</tspan><tspan x="-253.4" y="231" class="st15 st16 st27 st21">daad niet aanwezig is. Hij zegt dat ik </tspan><tspan x="-242.5" y="259.9" class="st15 st16 st27 st21">een mailtje naar het magazijn moet </tspan><tspan x="-239.6" y="288.7" class="st15 st16 st27 st21">sturen. Die hebben nog een exem</tspan><tspan x="285" y="288.7" class="st15 st16 st27 st21">-</tspan><tspan x="-231.8" y="317.6" class="st15 st16 st27 st21">plaar. Hij veegt wat zweet van zijn </tspan><tspan x="-226.7" y="346.5" class="st15 st16 st27 st21">voorhoofd af met een oranje zak</tspan><tspan x="272.7" y="346.5" class="st15 st16 st27 st21">-</tspan><tspan x="-219.1" y="375.4" class="st15 st16 st27 st21">doek. Ik mail. Tien minuten later </tspan><tspan x="-235.2" y="404.2" class="st15 st16 st27 st21">krijg ik het mailtje terug. Het boek </tspan><tspan x="-209.2" y="433.1" class="st15 st16 st27 st21">moet op de tweede verdieping </tspan><tspan x="-180.6" y="462" class="st15 st16 st27 st21">aanwezig zijn. Rood aange</tspan><tspan x="228" y="462" class="st15 st16 st27 st21">-</tspan><tspan x="-139.4" y="490.9" class="st15 st16 st27 st21">lopen verlaat ik de bi</tspan><tspan x="186.2" y="490.9" class="st15 st16 st27 st21">-</tspan><tspan x="-46.5" y="519.7" class="st15 st16 st27 st21">bliotheek.</tspan></text>
</svg>
