<?xml version="1.0" encoding="utf-8"?>
<!-- Generator: Adobe Illustrator 19.2.0, SVG Export Plug-In . SVG Version: 6.00 Build 0)  -->
<svg version="1.1" id="Laag_1" xmlns="http://www.w3.org/2000/svg" xmlns:xlink="http://www.w3.org/1999/xlink" x="0px" y="0px"
	 viewBox="0 0 1457.5 9107.7" style="enable-background:new 0 0 1457.5 9107.7;" xml:space="preserve">
<style type="text/css">
	.st0{fill:#FF9999;}
	.st1{fill:#FF8DC6;}
	.st2{fill:#FFB3F1;}
	.st3{fill:#B097FF;}
	.st4{fill:#99B9FF;}
	.st5{fill:#99E9FF;}
	.st6{fill:#99FFFA;}
	.st7{fill:#99FFDD;}
	.st8{fill:#99FFC2;}
	.st9{fill:#99FFA7;}
	.st10{fill:#B2FF99;}
	.st11{fill:#DAFF99;}
	.st12{fill:#F8FF99;}
	.st13{fill:#FFF599;}
	.st14{fill:none;}
	.st15{fill:#231F20;}
	.st16{font-family:'Avenir-Light';}
	.st17{font-size:55px;}
	.st18{letter-spacing:1.6;}
	.st19{font-family:'Avenir-Heavy';}
	.st20{font-size:85px;}
	.st21{letter-spacing:3;}
	.st22{font-size:90px;}
	.st23{letter-spacing:2;}
	.st24{fill:none;stroke:#000000;stroke-width:30;stroke-miterlimit:10;}
	.st25{font-size:63px;}
	.st26{font-family:'Avenir-Roman';}
	.st27{font-size:107px;}
	.st28{font-size:67px;}
</style>
<rect x="-3.9" y="8409.7" class="st0" width="1457.5" height="692"/>
<rect x="0" y="7717.6" class="st1" width="1457.5" height="692"/>
<rect x="-3.9" y="7025.6" class="st2" width="1457.5" height="692"/>
<rect x="0" y="6357.4" class="st3" width="1457.5" height="692"/>
<rect x="-3.9" y="5665.4" class="st4" width="1457.5" height="692"/>
<rect x="0" y="4973.3" class="st5" width="1457.5" height="692"/>
<rect x="-3.9" y="4281.3" class="st6" width="1457.5" height="692"/>
<rect x="-3.9" y="3589.2" class="st7" width="1457.5" height="692"/>
<rect x="0" y="2908.6" class="st8" width="1457.5" height="692"/>
<rect x="-3.9" y="2230.9" class="st9" width="1457.5" height="692"/>
<rect x="-3.9" y="1540.9" class="st10" width="1457.5" height="692"/>
<rect x="0" y="852.9" class="st11" width="1457.5" height="692"/>
<rect x="0" y="160.9" class="st12" width="1457.5" height="692"/>
<rect x="-3.9" y="8.8" class="st13" width="1457.5" height="152.1"/>
<path class="st14" d="M79.1,1198.3v-1083h438c81.2,0,143.3,8.9,186.2,26.6c42.9,17.7,77.6,50.6,103.9,98.6
	c26.3,48,39.5,106.4,39.5,175.4c0,60.1-10.1,111.9-30.3,155.4c-20.2,43.6-47.9,78.9-83.2,106c-22.5,17.2-53.3,31.5-92.5,42.8
	c31.2,13.4,54,26.7,68.3,40.1c9.6,8.9,23.6,28,42,57.2c18.3,29.2,30.6,51.8,36.7,67.6L916,1198.3H619.4L478,867.1
	c-17.9-42.9-33.8-70.7-47.7-83.5c-19-16.8-40.6-25.1-64.6-25.1h-23.3v439.9H79.1z"/>
<text transform="matrix(1.2279 0 0 1 79.0514 156.8663)"><tspan x="0" y="0" class="st15 st16 st17 st18">Bus 21. Ik stap </tspan><tspan x="0" y="58.4" class="st15 st16 st17 st18">uit. Het is een gure </tspan><tspan x="0" y="116.8" class="st15 st16 st17 st18">dag, geen ultraviolet</tspan><tspan x="557.2" y="116.8" class="st15 st16 st17 st18">-</tspan><tspan x="0" y="175.2" class="st15 st16 st17 st18">te zonnestralen die </tspan><tspan x="0" y="233.6" class="st15 st16 st17 st18">het tere huidje van </tspan><tspan x="0" y="292" class="st15 st16 st17 st18">mijn zoontje aantasten. </tspan><tspan x="0" y="350.4" class="st15 st16 st17 st18">Hij ligt te slapen in z’n </tspan><tspan x="0" y="408.8" class="st15 st16 st17 st18">paarse kinderwagen. </tspan><tspan x="0" y="467.3" class="st15 st16 st17 st18">De reizigers lopen </tspan><tspan x="0" y="525.7" class="st15 st16 st17 st18">van en naar CS. Ik </tspan><tspan x="0" y="584.1" class="st15 st16 st17 st18">ga naar de Open</tspan><tspan x="452.2" y="584.1" class="st15 st16 st17 st18">-</tspan><tspan x="0" y="642.5" class="st15 st16 st17 st18">bare Bi</tspan><tspan x="190.1" y="642.5" class="st15 st16 st17 st18">-</tspan><tspan x="296.8" y="642.5" class="st15 st16 st17 st18">blio</tspan><tspan x="399.2" y="642.5" class="st15 st16 st17 st18">-</tspan><tspan x="0" y="700.9" class="st15 st16 st17 st18">theek </tspan><tspan x="321.7" y="700.9" class="st15 st16 st17 st18">om Stij</tspan><tspan x="507.8" y="700.9" class="st15 st16 st17 st18">-</tspan><tspan x="0" y="759.3" class="st15 st16 st17 st18">loefe</tspan><tspan x="135.4" y="759.3" class="st15 st16 st17 st18">-</tspan><tspan x="342" y="759.3" class="st15 st16 st17 st18">ningen </tspan><tspan x="0" y="817.7" class="st15 st16 st17 st18">van </tspan><tspan x="362.3" y="817.7" class="st15 st16 st17 st18">Ray</tspan><tspan x="456.2" y="817.7" class="st15 st16 st17 st18">-</tspan><tspan x="0" y="876.1" class="st15 st16 st17 st18">mond </tspan><tspan x="382.6" y="876.1" class="st15 st16 st17 st18">Que</tspan><tspan x="496.9" y="876.1" class="st15 st16 st17 st18">-</tspan><tspan x="0" y="934.5" class="st15 st16 st17 st18">neau te </tspan><tspan x="402.9" y="934.5" class="st15 st16 st17 st18">lenen.</tspan></text>
<polygon points="803.2,881 1328.4,881 1328.4,1016.2 1000,1016.2 1000,1117 1304.6,1117 1304.6,1246.6 1000,1246.6 1000,1372 
	1338.2,1372 1338.2,1515.6 803.2,1515.6 "/>
<path class="st14" d="M777.1,2317.6v-233.2h585.8V2560c-112.3,69.5-211.7,116.8-298,141.9c-86.4,25.1-188.8,37.7-307.2,37.7
	c-145.9,0-264.8-22.6-356.7-67.8c-92-45.2-163.2-112.5-213.8-201.9c-50.6-89.4-75.8-192-75.8-307.8c0-121.9,27.7-227.9,83-318.1
	s136.4-158.6,243.2-205.3c83.3-36.1,195.4-54.1,336.3-54.1c135.9,0,237.4,11.2,304.8,33.6s123.3,57.1,167.7,104.2
	c44.5,47.1,77.8,106.7,100.2,178.9L980.5,1961c-15.1-42.3-40.7-74.7-76.8-97.1s-82.1-33.7-137.9-33.7c-83.3,0-149.7,26.3-199.2,78.9
	c-49.5,52.6-74.2,135.7-74.2,249.5c0,120.9,25,207.2,75,259c50,51.8,119.7,77.7,209.2,77.7c42.5,0,83-5.5,121.6-16.6
	c38.6-11.1,82.7-30,132.5-56.7v-104.3H777.1z"/>
<text transform="matrix(1 0 0 1 683.1375 1648.8978)"><tspan x="0" y="0" class="st15 st19 st20 st21">Voor </tspan><tspan x="-266.5" y="66" class="st15 st19 st20 st21">ik de bibliotheek </tspan><tspan x="-330.4" y="132" class="st15 st19 st20 st21">in ga, wordt ik aan</tspan><tspan x="483.5" y="132" class="st15 st19 st20 st21">-</tspan><tspan x="-399.5" y="198" class="st15 st19 st20 st21">gespro</tspan><tspan x="-98.5" y="198" class="st15 st19 st20 st21">-</tspan><tspan x="207.5" y="198" class="st15 st19 st20 st21">ken door </tspan><tspan x="-384.6" y="264" class="st15 st19 st20 st21">een </tspan><tspan x="302.5" y="264" class="st15 st19 st20 st21">vrouw </tspan><tspan x="-425.9" y="330" class="st15 st19 st20 st21">met </tspan><tspan x="-509.2" y="396" class="st15 st19 st20 st21">zwarte </tspan><tspan x="-536.8" y="462" class="st15 st19 st20 st21">krullen. </tspan><tspan x="-507.2" y="528" class="st15 st19 st20 st21">Of dit </tspan><tspan x="116.9" y="528" class="st15 st19 st20 st21">het postkan</tspan><tspan x="630.1" y="528" class="st15 st19 st20 st21">-</tspan><tspan x="-532" y="594" class="st15 st19 st20 st21">toor is. </tspan><tspan x="127.9" y="594" class="st15 st19 st20 st21">Nee, zeg ik, </tspan><tspan x="-480.7" y="660" class="st15 st19 st20 st21">daar</tspan><tspan x="-287.8" y="660" class="st15 st19 st20 st21">-</tspan><tspan x="124.4" y="660" class="st15 st19 st20 st21">voor moet u </tspan><tspan x="-516.3" y="726" class="st15 st19 st20 st21">naar de </tspan><tspan x="393.6" y="726" class="st15 st19 st20 st21">Raad</tspan><tspan x="607" y="726" class="st15 st19 st20 st21">-</tspan><tspan x="-426.3" y="792" class="st15 st19 st20 st21">huis</tspan><tspan x="-254" y="792" class="st15 st19 st20 st21">-</tspan><tspan x="375.8" y="792" class="st15 st19 st20 st21">straat. </tspan><tspan x="-470.1" y="858" class="st15 st19 st20 st21">Ze draait </tspan><tspan x="323.4" y="858" class="st15 st19 st20 st21">zich om </tspan><tspan x="-278.8" y="924" class="st15 st19 st20 st21">en rent achter een </tspan><tspan x="-298.5" y="990" class="st15 st19 st20 st21">groene Renault 21 </tspan><tspan x="-1.1" y="1056" class="st15 st19 st20 st21">aan.</tspan></text>
<polygon class="st14" points="263.2,2809.6 1323.3,2809.6 1323.3,3031.3 660.4,3031.3 660.4,3196.7 1275.3,3196.7 1275.3,3409.1 
	660.4,3409.1 660.4,3614.7 1343.1,3614.7 1343.1,3850.2 263.2,3850.2 "/>
<text transform="matrix(1 0 0 1 263.1892 2877.6375)"><tspan x="0" y="0" class="st15 st16 st22 st23">Amsterdam is één grote </tspan><tspan x="0" y="76" class="st15 st16 st22 st23">bouwput hier. Ik moet </tspan><tspan x="0" y="152" class="st15 st16 st22 st23">over planken lopen. Een </tspan><tspan x="0" y="228" class="st15 st16 st22 st23">groep </tspan><tspan x="0" y="304" class="st15 st16 st22 st23">Japan</tspan><tspan x="253.5" y="304" class="st15 st16 st22 st23">-</tspan><tspan x="0" y="380" class="st15 st16 st22 st23">ners pas</tspan><tspan x="350.5" y="380" class="st15 st16 st22 st23">-</tspan><tspan x="0" y="456" class="st15 st16 st22 st23">seert me. Ze dragen al</tspan><tspan x="948.7" y="456" class="st15 st16 st22 st23">-</tspan><tspan x="0" y="532" class="st15 st16 st22 st23">lemaal </tspan><tspan x="0" y="608" class="st15 st16 st22 st23">zo’n drie</tspan><tspan x="366.3" y="608" class="st15 st16 st22 st23">-</tspan><tspan x="0" y="684" class="st15 st16 st22 st23">hoekige, </tspan><tspan x="0" y="760" class="st15 st16 st22 st23">blauwe </tspan><tspan x="0" y="836" class="st15 st16 st22 st23">doos met daarin een </tspan><tspan x="0" y="912" class="st15 st16 st22 st23">poster van Van Gogh.</tspan></text>
<polygon class="st24" points="77.8,3935.3 343,3935.3 690.1,4444.8 690.1,3935.3 958.2,3935.3 958.2,4855.3 690.1,4855.3 
	344.8,4348.6 344.8,4855.3 77.8,4855.3 "/>
<path class="st24" d="M587.3,4591.3h485.5c80.9,0,143,20,186.3,60.1c43.3,40.1,65,89.7,65,148.9c0,49.6-15.4,92.2-46.3,127.7
	c-20.6,23.7-50.6,42.4-90.2,56.1c60.2,14.5,104.4,39.3,132.8,74.6c28.4,35.2,42.6,79.5,42.6,132.9c0,43.4-10.1,82.5-30.3,117.2
	c-20.2,34.7-47.9,62.1-83,82.3c-21.8,12.6-54.6,21.7-98.5,27.4c-58.4,7.6-97.1,11.4-116.2,11.4H587.3V4591.3z"/>
<path class="st14" d="M60.4,5801.4c0-120,28.1-213.3,84.3-280.2c56.2-66.8,134.5-100.2,234.8-100.2c102.9,0,182.1,32.8,237.8,98.5
	c55.7,65.7,83.5,157.6,83.5,275.9c0,85.9-12.2,156.3-36.5,211.3c-24.3,55-59.5,97.7-105.4,128.3c-46,30.6-103.2,45.9-171.8,45.9
	c-69.7,0-127.4-13.2-173.1-39.6c-45.7-26.4-82.7-68.2-111.1-125.3C74.6,5958.8,60.4,5887.3,60.4,5801.4z"/>
<text transform="matrix(1 0 0 1 288.0663 5522.6157)"><tspan x="0" y="0" class="st15 st16 st25 st23">Boven</tspan><tspan x="-118.9" y="54" class="st15 st16 st25 st23"> zoek ik tever</tspan><tspan x="285.2" y="54" class="st15 st16 st25 st23">-</tspan><tspan x="-183" y="108" class="st15 st16 st25 st23">geefs naar Stijloe</tspan><tspan x="348.9" y="108" class="st15 st16 st25 st23">-</tspan><tspan x="-200" y="162" class="st15 st16 st25 st23">feningen. Het boek </tspan><tspan x="-164" y="216" class="st15 st16 st25 st23">ligt niet waar het </tspan><tspan x="-180.9" y="270" class="st15 st16 st25 st23">hoort te liggen. Ik </tspan><tspan x="-222.7" y="324" class="st15 st16 st25 st23">kijk op de computer. </tspan><tspan x="-180.7" y="385" class="st15 st16 st25 st23">Daar staat dat het </tspan><tspan x="-174.7" y="446" class="st15 st16 st25 st23">boek wel degelijk </tspan><tspan x="-134.9" y="507" class="st15 st16 st25 st23">aanwezig moet </tspan><tspan x="-95.5" y="568" class="st15 st16 st25 st23">zijn. Ik vraag </tspan><tspan x="-18.4" y="629" class="st15 st16 st25 st23">het aan </tspan></text>
<path class="st14" d="M742.8,8216.2v-268.7H1357v548c-117.8,80.1-222,134.6-312.5,163.6c-90.6,28.9-197.9,43.4-322.2,43.4
	c-152.9,0-277.6-26-374-78.1c-96.4-52.1-171.1-129.6-224.2-232.6S44.6,8170.5,44.6,8037c0-140.5,29-262.6,87-366.5
	s143.1-182.7,255-236.6c87.4-41.5,204.9-62.3,352.7-62.3c142.5,0,249,12.9,319.6,38.7s129.3,65.8,175.9,120
	c46.6,54.2,81.6,123,105.1,206.2l-383.9,68.7c-15.8-48.8-42.7-86.1-80.5-111.9c-37.8-25.9-86-38.8-144.7-38.8
	c-87.4,0-157,30.3-208.9,90.9s-77.8,156.4-77.8,287.5c0,139.3,26.2,238.8,78.7,298.5c52.5,59.7,125.6,89.5,219.4,89.5
	c44.5,0,87-6.4,127.5-19.2c40.4-12.8,86.8-34.5,138.9-65.3v-120.2H742.8z"/>
<text transform="matrix(1 0 0 1 672.9661 7452.4932)"><tspan x="0" y="0" class="st15 st26 st27 st21">Op </tspan><tspan x="-194.6" y="71" class="st15 st26 st27 st21">het Bos en </tspan><tspan x="-416.5" y="142" class="st15 st26 st27 st21">Lommerplein, vlak</tspan><tspan x="514.3" y="142" class="st15 st26 st27 st21">-</tspan><tspan x="-442.9" y="213" class="st15 st26 st27 st21">bij mijn </tspan><tspan x="173.9" y="213" class="st15 st26 st27 st21">woning, </tspan><tspan x="-527" y="284" class="st15 st26 st27 st21">koop ik </tspan><tspan x="279.6" y="284" class="st15 st26 st27 st21">schoe</tspan><tspan x="574.8" y="284" class="st15 st26 st27 st21">-</tspan><tspan x="-473.5" y="355" class="st15 st26 st27 st21">nen </tspan><tspan x="-518.2" y="426" class="st15 st26 st27 st21">voor </tspan><tspan x="-525.2" y="497" class="st15 st26 st27 st21">mijn </tspan><tspan x="-567.5" y="568" class="st15 st26 st27 st21">zoon</tspan><tspan x="-321" y="568" class="st15 st26 st27 st21">-</tspan><tspan x="91.6" y="568" class="st15 st26 st27 st21">tje. Infraro</tspan><tspan x="626.6" y="568" class="st15 st26 st27 st21">-</tspan><tspan x="-622" y="639" class="st15 st26 st27 st21">de stra</tspan><tspan x="-269.2" y="639" class="st15 st26 st27 st21">-</tspan><tspan x="78.9" y="639" class="st15 st26 st27 st21">len scannen </tspan><tspan x="-487.6" y="710" class="st15 st26 st27 st21">de </tspan><tspan x="127.1" y="710" class="st15 st26 st27 st21">streepjes</tspan><tspan x="591.1" y="710" class="st15 st26 st27 st21">-</tspan><tspan x="-554.3" y="781" class="st15 st26 st27 st21">code: </tspan><tspan x="386.3" y="781" class="st15 st26 st27 st21">10 % </tspan><tspan x="-494.6" y="852" class="st15 st26 st27 st21">kor</tspan><tspan x="-330.6" y="852" class="st15 st26 st27 st21">-</tspan><tspan x="394.7" y="852" class="st15 st26 st27 st21">ting. </tspan><tspan x="-454.5" y="923" class="st15 st26 st27 st21">Het </tspan><tspan x="422.5" y="923" class="st15 st26 st27 st21">kan </tspan><tspan x="-384.1" y="994" class="st15 st26 st27 st21">mij </tspan><tspan x="288.5" y="994" class="st15 st26 st27 st21">maar in </tspan><tspan x="-383.3" y="1065" class="st15 st26 st27 st21">beperkte mate op</tspan><tspan x="536.7" y="1065" class="st15 st26 st27 st21">-</tspan><tspan x="-119.4" y="1136" class="st15 st26 st27 st21">beuren.</tspan></text>
<path class="st14" d="M162.7,6692.3c0-185.6,56.2-330,168.6-433.4c112.4-103.4,269-155.1,469.7-155.1
	c205.7,0,364.3,50.8,475.6,152.4s167,243.8,167,426.8c0,132.9-24.3,241.8-72.9,326.8c-48.6,85-118.9,151.2-210.8,198.5
	c-91.9,47.3-206.4,70.9-343.6,70.9c-139.4,0-254.8-20.4-346.1-61.2c-91.4-40.8-165.4-105.4-222.2-193.8
	C191.1,6935.7,162.7,6825.1,162.7,6692.3z"/>
<text transform="matrix(1 0 0 1 743.8973 6154.4487)"><tspan x="0" y="0" class="st15 st16 st28 st23">een </tspan><tspan x="-248.3" y="61" class="st15 st16 st28 st23">medewerker, wiens </tspan><tspan x="-311.4" y="122" class="st15 st16 st28 st23">ongezonde voorkomen </tspan><tspan x="-390.1" y="183" class="st15 st16 st28 st23">doet vermoeden dat hij een </tspan><tspan x="-458.5" y="244" class="st15 st16 st28 st23">lichte vorm van geelzucht onder </tspan><tspan x="-453.5" y="305" class="st15 st16 st28 st23">de leden heeft. De medewerker </tspan><tspan x="-534.4" y="366" class="st15 st16 st28 st23">kijkt met mij mee, maar moet tot zijn </tspan><tspan x="-534.8" y="427" class="st15 st16 st28 st23">spijt constateren dat het boek inder</tspan><tspan x="632.6" y="427" class="st15 st16 st28 st23">-</tspan><tspan x="-535.3" y="488" class="st15 st16 st28 st23">daad niet aanwezig is. Hij zegt dat ik </tspan><tspan x="-512.4" y="549" class="st15 st16 st28 st23">een mailtje naar het magazijn moet </tspan><tspan x="-506.2" y="610" class="st15 st16 st28 st23">sturen. Die hebben nog een exem</tspan><tspan x="602.1" y="610" class="st15 st16 st28 st23">-</tspan><tspan x="-489.8" y="671" class="st15 st16 st28 st23">plaar. Hij veegt wat zweet van zijn </tspan><tspan x="-479" y="732" class="st15 st16 st28 st23">voorhoofd af met een oranje zak</tspan><tspan x="576" y="732" class="st15 st16 st28 st23">-</tspan><tspan x="-462.9" y="793" class="st15 st16 st28 st23">doek. Ik mail. Tien minuten later </tspan><tspan x="-496.9" y="854" class="st15 st16 st28 st23">krijg ik het mailtje terug. Het boek </tspan><tspan x="-442" y="915" class="st15 st16 st28 st23">moet op de tweede verdieping </tspan><tspan x="-381.6" y="976" class="st15 st16 st28 st23">aanwezig zijn. Rood aange</tspan><tspan x="481.7" y="976" class="st15 st16 st28 st23">-</tspan><tspan x="-294.5" y="1037" class="st15 st16 st28 st23">lopen verlaat ik de bi</tspan><tspan x="393.4" y="1037" class="st15 st16 st28 st23">-</tspan><tspan x="-98.2" y="1098" class="st15 st16 st28 st23">bliotheek.</tspan></text>
</svg>
