<?xml version="1.0" encoding="utf-8"?>
<!-- Generator: Adobe Illustrator 19.2.0, SVG Export Plug-In . SVG Version: 6.00 Build 0)  -->
<svg version="1.1" id="Laag_1" xmlns="http://www.w3.org/2000/svg" xmlns:xlink="http://www.w3.org/1999/xlink" x="0px" y="0px"
	 viewBox="0 0 879.8 337.5" style="enable-background:new 0 0 879.8 337.5;" xml:space="preserve">
<style type="text/css">
	.st0{fill:url(#SVGID_1_);}
	.st1{fill:url(#SVGID_2_);}
	.st2{fill:url(#SVGID_3_);}
	.st3{fill:url(#SVGID_4_);}
	.st4{fill:url(#SVGID_5_);}
	.st5{fill:url(#SVGID_6_);}
</style>
<g>
	
		<linearGradient id="SVGID_1_" gradientUnits="userSpaceOnUse" x1="0" y1="168.7381" x2="879.8095" y2="168.7381" gradientTransform="matrix(-1 0 0 1 879.8095 0)">
		<stop  offset="0" style="stop-color:#FFFFFF"/>
		<stop  offset="2.457488e-02" style="stop-color:#E5E5E5"/>
		<stop  offset="6.916809e-02" style="stop-color:#BDBCBC"/>
		<stop  offset="0.1193" style="stop-color:#989697"/>
		<stop  offset="0.1738" style="stop-color:#787676"/>
		<stop  offset="0.234" style="stop-color:#5D5A5B"/>
		<stop  offset="0.3021" style="stop-color:#484445"/>
		<stop  offset="0.3815" style="stop-color:#373334"/>
		<stop  offset="0.4797" style="stop-color:#2C2829"/>
		<stop  offset="0.6175" style="stop-color:#252122"/>
		<stop  offset="1" style="stop-color:#231F20"/>
	</linearGradient>
	<polygon class="st0" points="0,337.5 879.8,337.5 879.8,0 0,0 	"/>
	<g>
		<g>
			<linearGradient id="SVGID_2_" gradientUnits="userSpaceOnUse" x1="79.9722" y1="157.1753" x2="779.1973" y2="157.1753">
				<stop  offset="0" style="stop-color:#FFFFFF"/>
				<stop  offset="2.457488e-02" style="stop-color:#E5E5E5"/>
				<stop  offset="6.916809e-02" style="stop-color:#BDBCBC"/>
				<stop  offset="0.1193" style="stop-color:#989697"/>
				<stop  offset="0.1738" style="stop-color:#787676"/>
				<stop  offset="0.234" style="stop-color:#5D5A5B"/>
				<stop  offset="0.3021" style="stop-color:#484445"/>
				<stop  offset="0.3815" style="stop-color:#373334"/>
				<stop  offset="0.4797" style="stop-color:#2C2829"/>
				<stop  offset="0.6175" style="stop-color:#252122"/>
				<stop  offset="1" style="stop-color:#231F20"/>
			</linearGradient>
			<path class="st1" d="M80,85.6h82.8c13.8,0,24.4,3.4,31.8,10.3c7.4,6.8,11.1,15.3,11.1,25.4c0,8.5-2.6,15.7-7.9,21.8
				c-3.5,4-8.7,7.2-15.4,9.6c10.3,2.5,17.9,6.7,22.7,12.7c4.8,6,7.3,13.6,7.3,22.7c0,7.4-1.7,14.1-5.2,20
				c-3.5,5.9-8.2,10.6-14.2,14.1c-3.7,2.1-9.3,3.7-16.8,4.7c-10,1.3-16.6,2-19.8,2H80V85.6z M124.6,141.7h19.2
				c6.9,0,11.7-1.2,14.4-3.6c2.7-2.4,4.1-5.8,4.1-10.3c0-4.2-1.4-7.4-4.1-9.8c-2.7-2.3-7.4-3.5-14.1-3.5h-19.5V141.7z M124.6,198
				h22.6c7.6,0,13-1.4,16.1-4.1c3.1-2.7,4.7-6.3,4.7-10.9c0-4.2-1.5-7.6-4.6-10.2c-3.1-2.6-8.5-3.9-16.3-3.9h-22.5V198z"/>
			<linearGradient id="SVGID_3_" gradientUnits="userSpaceOnUse" x1="79.9722" y1="157.1753" x2="779.1973" y2="157.1753">
				<stop  offset="0" style="stop-color:#FFFFFF"/>
				<stop  offset="2.457488e-02" style="stop-color:#E5E5E5"/>
				<stop  offset="6.916809e-02" style="stop-color:#BDBCBC"/>
				<stop  offset="0.1193" style="stop-color:#989697"/>
				<stop  offset="0.1738" style="stop-color:#787676"/>
				<stop  offset="0.234" style="stop-color:#5D5A5B"/>
				<stop  offset="0.3021" style="stop-color:#484445"/>
				<stop  offset="0.3815" style="stop-color:#373334"/>
				<stop  offset="0.4797" style="stop-color:#2C2829"/>
				<stop  offset="0.6175" style="stop-color:#252122"/>
				<stop  offset="1" style="stop-color:#231F20"/>
			</linearGradient>
			<path class="st2" d="M243.8,85.6h44.2v107.9h69v35.3H243.8V85.6z"/>
			<linearGradient id="SVGID_4_" gradientUnits="userSpaceOnUse" x1="79.9722" y1="157.1753" x2="779.1973" y2="157.1753">
				<stop  offset="0" style="stop-color:#FFFFFF"/>
				<stop  offset="2.457488e-02" style="stop-color:#E5E5E5"/>
				<stop  offset="6.916809e-02" style="stop-color:#BDBCBC"/>
				<stop  offset="0.1193" style="stop-color:#989697"/>
				<stop  offset="0.1738" style="stop-color:#787676"/>
				<stop  offset="0.234" style="stop-color:#5D5A5B"/>
				<stop  offset="0.3021" style="stop-color:#484445"/>
				<stop  offset="0.3815" style="stop-color:#373334"/>
				<stop  offset="0.4797" style="stop-color:#2C2829"/>
				<stop  offset="0.6175" style="stop-color:#252122"/>
				<stop  offset="1" style="stop-color:#231F20"/>
			</linearGradient>
			<path class="st3" d="M387.4,85.6h44.3v143.2h-44.3V85.6z"/>
			<linearGradient id="SVGID_5_" gradientUnits="userSpaceOnUse" x1="79.9722" y1="157.1753" x2="779.1973" y2="157.1753">
				<stop  offset="0" style="stop-color:#FFFFFF"/>
				<stop  offset="2.457488e-02" style="stop-color:#E5E5E5"/>
				<stop  offset="6.916809e-02" style="stop-color:#BDBCBC"/>
				<stop  offset="0.1193" style="stop-color:#989697"/>
				<stop  offset="0.1738" style="stop-color:#787676"/>
				<stop  offset="0.234" style="stop-color:#5D5A5B"/>
				<stop  offset="0.3021" style="stop-color:#484445"/>
				<stop  offset="0.3815" style="stop-color:#373334"/>
				<stop  offset="0.4797" style="stop-color:#2C2829"/>
				<stop  offset="0.6175" style="stop-color:#252122"/>
				<stop  offset="1" style="stop-color:#231F20"/>
			</linearGradient>
			<path class="st4" d="M472.2,85.6h41.3l53.9,79.2V85.6h41.7v143.2h-41.7l-53.6-78.6v78.6h-41.6V85.6z"/>
			<linearGradient id="SVGID_6_" gradientUnits="userSpaceOnUse" x1="79.9722" y1="157.1753" x2="779.1973" y2="157.1753">
				<stop  offset="0" style="stop-color:#FFFFFF"/>
				<stop  offset="2.457488e-02" style="stop-color:#E5E5E5"/>
				<stop  offset="6.916809e-02" style="stop-color:#BDBCBC"/>
				<stop  offset="0.1193" style="stop-color:#989697"/>
				<stop  offset="0.1738" style="stop-color:#787676"/>
				<stop  offset="0.234" style="stop-color:#5D5A5B"/>
				<stop  offset="0.3021" style="stop-color:#484445"/>
				<stop  offset="0.3815" style="stop-color:#373334"/>
				<stop  offset="0.4797" style="stop-color:#2C2829"/>
				<stop  offset="0.6175" style="stop-color:#252122"/>
				<stop  offset="1" style="stop-color:#231F20"/>
			</linearGradient>
			<path class="st5" d="M647.5,85.6h65.7c13,0,23.4,1.8,31.4,5.3c8,3.5,14.6,8.6,19.8,15.1c5.2,6.6,9,14.2,11.3,22.9
				c2.3,8.7,3.5,18,3.5,27.7c0,15.3-1.7,27.2-5.2,35.6c-3.5,8.4-8.3,15.5-14.5,21.2c-6.2,5.7-12.8,9.5-19.9,11.4
				c-9.7,2.6-18.5,3.9-26.4,3.9h-65.7V85.6z M691.7,118v78.2h10.8c9.2,0,15.8-1,19.7-3.1s7-5.6,9.2-10.7c2.2-5.1,3.3-13.4,3.3-24.9
				c0-15.2-2.5-25.6-7.4-31.2c-4.9-5.6-13.2-8.4-24.6-8.4H691.7z"/>
		</g>
	</g>
</g>
</svg>
